<svg xmlns="http://www.w3.org/2000/svg" style="display: none;">
  <symbol id="awards" viewBox="0 0 104 35">
    <title>awards</title>
    <path fill-rule="evenodd" d="M27 3H0V0h27v3z" clip-rule="evenodd"/>
    <path d="M29.7143 23.9163l.9742.1138-.077.6933-1.4823-.1733c-.4558.4243-.9707.7769-1.5278 1.0462l1.0225.762-.401.5651-1.376-1.0256c-.4489.1503-.9135.2465-1.3843.2865-.16.0129-.3217.0193-.485.0193-.21 0-.4199-.0114-.6299-.0329-.3888-.0402-.7731-.1176-1.1477-.2313L21.7722 27l-.401-.565 1.0666-.7921c-.5639-.2583-1.0865-.6021-1.5502-1.0198l-1.5019.1747-.077-.6932.9707-.1131c-.4539-.5403-.815-1.1553-1.0679-1.8191L18 21.6196l.2799-.6374.6782.3087c-.1059-.4643-.1606-.9392-.1631-1.4159 0-.1317.0091-.2828.0224-.4411l-.6214-.6675.4899-.4819.2526.2714c.1029-.5332.2603-1.0539.4696-1.5533l.625.2807c-.1914.458-.3347.9355-.4276 1.4244l.4129-.227.3226.6144-.8503.4684c-.0084.1117-.0133.2149-.0133.3115.0015.4342.0518.8667.1498 1.2891l.4983-.7011.5515.4146-.7965 1.1179c.2094.5283.4964 1.0207.8511 1.4603l.1357-1.0993.6768.0881-.2051 1.6557c.3859.347.8178.6363 1.2829.8594l-.1708-1.4201.6768-.0853.2155 1.7969c.3491.1104.708.1852 1.0715.2234.3308.034.6638.0381.9952.0122.421-.0354.8365-.1209 1.2381-.255l.2218-1.8519.6768.0852-.1764 1.4745c.4696-.2345.9043-.5359 1.2913-.8951l-.21-1.6751.6768-.0881.1357 1.0993c.3515-.4469.6347-.9458.8399-1.4796l-.7804-1.1007.5515-.4104.4773.6704c.0832-.3894.1252-.7867.1253-1.1853 0-.1231-.0077-.2649-.0196-.4132l-.8041-.4419.3226-.6144.3667.2019c-.0941-.5215-.2441-1.0309-.4472-1.5189l.6243-.2822c.2297.5501.3978 1.125.5011 1.7138l.2883-.3094.4934.482-.6655.7161c.0133.1683.0217.3287.0217.4705-.0015.4562-.052.9108-.1505 1.3557l.7111-.3237.2799.6381-1.2451.5665c-.2475.6547-.5991 1.2631-1.0406 1.8004zm-6.9895-3.0687l2.3179-1.7603 2.3214 1.708-.7124-2.9126 2.3011-1.8691h-2.763L25.0469 13l-1.096 2.9878h-2.9555l2.5195 1.839-.7901 3.0208zM83.7143 23.9163l.9742.1138-.077.6933-1.4823-.1733c-.4558.4243-.9707.7769-1.5278 1.0462l1.0225.762-.401.5651-1.376-1.0256c-.4489.1503-.9135.2465-1.3843.2865-.16.0129-.3217.0193-.485.0193-.21 0-.4199-.0114-.6299-.0329-.3888-.0402-.7731-.1176-1.1477-.2313L75.7722 27l-.401-.565 1.0666-.7921c-.5639-.2583-1.0865-.6021-1.5502-1.0198l-1.5019.1747-.077-.6932.9707-.1131c-.4539-.5403-.815-1.1553-1.0679-1.8191L72 21.6196l.2799-.6374.6782.3087c-.1059-.4643-.1606-.9392-.1631-1.4159 0-.1317.0091-.2828.0224-.4411l-.6214-.6675.4899-.4819.2526.2714c.1029-.5332.2603-1.0539.4696-1.5533l.625.2807c-.1914.458-.3347.9355-.4276 1.4244l.4129-.227.3226.6144-.8503.4684c-.0084.1117-.0133.2149-.0133.3115.0015.4342.0518.8667.1498 1.2891l.4983-.7011.5515.4146-.7965 1.1179c.2094.5283.4964 1.0207.8511 1.4603l.1357-1.0993.6768.0881-.2051 1.6557c.3859.347.8178.6363 1.2829.8594l-.1708-1.4201.6768-.0853.2155 1.7969c.3491.1104.708.1852 1.0715.2234.3308.034.6638.0381.9952.0122.421-.0354.8365-.1209 1.2381-.255l.2218-1.8519.6768.0852-.1764 1.4745c.4696-.2345.9043-.5359 1.2913-.8951l-.21-1.6751.6768-.0881.1357 1.0993c.3515-.4469.6347-.9458.8399-1.4796l-.7804-1.1007.5515-.4104.4773.6704c.0832-.3894.1252-.7867.1253-1.1853 0-.1231-.0077-.2649-.0196-.4132l-.8041-.4419.3226-.6144.3667.2019c-.0941-.5215-.2441-1.0309-.4472-1.5189l.6243-.2822c.2297.5501.3978 1.125.5011 1.7138l.2883-.3094.4934.482-.6655.7161c.0133.1683.0217.3287.0217.4705-.0015.4562-.052.9108-.1505 1.3557l.7111-.3237.2799.6381-1.2451.5665c-.2475.6547-.5991 1.2631-1.0406 1.8004zm-6.9895-3.0687l2.3179-1.7603 2.3214 1.708-.7124-2.9126 2.3011-1.8691h-2.763L79.0469 13l-1.096 2.9878h-2.9555l2.5195 1.839-.7901 3.0208z"/>
    <path fill-rule="evenodd" d="M48 8H1v25h47V8zM0 7v27h49V7H0zM103 8H55v25h48V8zM54 7v27h50V7H54z" clip-rule="evenodd"/>
  </symbol>
  <symbol id="contact-us" viewBox="0 0 104 35">
    <title>contact-us</title>
    <path fill-rule="evenodd" d="M76 3.40283H54V.402832h22V3.40283zM75 29.4028H55v3h20v-3zm-21-1v5h22v-5H54zM103 16.4028H55v8h48v-8zm-49-1v10h50v-10H54zM12.25 28.6774H49V1H0v27.6774h5.35938V34L12.25 28.6774zM6.35938 31.964l5.54942-4.2866H48V2H1v25.6774h5.35938v4.2866z" clip-rule="evenodd"/>
    <path d="M23.4404 17.1973c.0091-.5424.0707-.9707.1846-1.2852.1139-.3144.3464-.6631.6973-1.0459l.8955-.9228c.3828-.433.5742-.8978.5742-1.3946 0-.4785-.1253-.8522-.376-1.1211-.2506-.2734-.6152-.4101-1.0937-.4101-.4649 0-.8386.123-1.1211.3691-.2826.2461-.4239.5765-.4239.9912h-1.2646c.0091-.7383.2712-1.333.7861-1.7841.5196-.4558 1.194-.68364 2.0235-.68364.8613 0 1.5312.23244 2.0097.69724.4831.4603.7246 1.0938.7246 1.9004 0 .7975-.3691 1.5837-1.1074 2.3584l-.7451.7383c-.3327.3691-.499.9001-.499 1.5928h-1.2647zm-.0547 2.167c0-.2051.0616-.376.1846-.5127.1276-.1413.3145-.212.5606-.212.2461 0 .4329.0707.5605.212.1276.1367.1914.3076.1914.5127 0 .205-.0638.3759-.1914.5127-.1276.1321-.3144.1982-.5605.1982-.2461 0-.433-.0661-.5606-.1982-.123-.1368-.1846-.3077-.1846-.5127z"/>
    <path fill-rule="evenodd" d="M104 8.40283H54v-1h50v1zM104 12.4028H54v-1h50v1z" clip-rule="evenodd"/>
  </symbol>
  <symbol id="embed" viewBox="0 0 104 35">
    <title>embed</title>
    <path fill-rule="evenodd" d="M12.5625 23l5.5-23 2.9177.69772-5.5 22.99998L12.5625 23zM4.04309 12.3161l6.10731-6.97975-2.25772-1.97551L0 12.381l7.92496 8.4911 2.19314-2.047-6.07501-6.509zM29.4999 11.8811l-6.1073 6.9798 2.2577 1.9755 7.8927-9.0202-7.925-8.49101-2.1932 2.04696 6.0751 6.50895zM104 2H39V1h65v1zM104 6H39V5h65v1zM77 10H39V9h38v1zM104 14H39v-1h65v1zM104 18H39v-1h65v1zM77 22H39v-1h38v1zM104 26H39v-1h65v1zM104 30H39v-1h65v1zM77 34H39v-1h38v1z" clip-rule="evenodd"/>
  </symbol>
  <symbol id="grid-icons" viewBox="0 0 104 35">
    <title>grid-icons</title>
    <path fill-rule="evenodd" d="M2.5.5h13v13h-13V.5zm1 1.70711v9.58579L8.29289 7 3.5 2.20711zm5.5 5.5L4.20711 12.5h9.58579L9 7.70711zm5.5 4.08579L9.70711 7 14.5 2.20711v9.58579zM13.7929 1.5L9 6.29289 4.20711 1.5h9.58579zM18 21H0v-3h18v3zM18 27H0v-1h18v1zM18 31H0v-1h18v1zM15 35H3v-1h12v1zM31.5.5h13v13h-13V.5zm1 1.70711v9.58579L37.2929 7 32.5 2.20711zm5.5 5.5L33.2071 12.5h9.5858L38 7.70711zm5.5 4.08579L38.7071 7 43.5 2.20711v9.58579zM42.7929 1.5L38 6.29289 33.2071 1.5h9.5858zM47 21H29v-3h18v3zM47 27H29v-1h18v1zM47 31H29v-1h18v1zM44 35H32v-1h12v1zM60.5.5h13v13h-13V.5zm1 1.70711v9.58579L66.2929 7 61.5 2.20711zm5.5 5.5L62.2071 12.5h9.5858L67 7.70711zm5.5 4.08579L67.7071 7 72.5 2.20711v9.58579zM71.7929 1.5L67 6.29289 62.2071 1.5h9.5858zM76 21H58v-3h18v3zM76 27H58v-1h18v1zM76 31H58v-1h18v1zM73 35H61v-1h12v1zM88.5.5h13v13h-13V.5zm1 1.70711v9.58579L94.2929 7 89.5 2.20711zm5.5 5.5L90.2071 12.5h9.5858L95 7.70711zm5.5 4.08579L95.7071 7 100.5 2.20711v9.58579zM99.7929 1.5L95 6.29289 90.2071 1.5h9.5858zM104 21H86v-3h18v3zM104 27H86v-1h18v1zM104 31H86v-1h18v1zM101 35H89v-1h12v1z" clip-rule="evenodd"/>
  </symbol>
  <symbol id="grid-logos" viewBox="0 0 104 35">
    <title>grid-logos</title>
    <path fill-rule="evenodd" d="M29 0h18v11H29V0zm2.3017 1L38 4.92802 44.6983 1H31.3017zm14.7509.34976L38.9754 5.5l7.0772 4.15024V1.34976zM44.6983 10L38 6.07198 31.3017 10h13.3966zm-14.7509-.34976V1.34976L37.0246 5.5l-7.0772 4.15024zM47 14H29v-1h18v1zM29 20h18v11H29V20zm2.3017 1L38 24.928 44.6983 21H31.3017zm14.7509.3498L38.9754 25.5l7.0772 4.1502v-8.3004zM44.6983 30L38 26.072 31.3017 30h13.3966zm-14.7509-.3498v-8.3004L37.0246 25.5l-7.0772 4.1502zM47 34H29v-1h18v1zM86 0h18v11H86V0zm2.3017 1L95 4.92802 101.698 1H88.3017zm14.7513.34976L95.9754 5.5l7.0776 4.15024V1.34976zM101.698 10L95 6.07198 88.3017 10h13.3963zm-14.7506-.34976V1.34976L94.0246 5.5l-7.0772 4.15024zM104 14H86v-1h18v1zM86 20h18v11H86V20zm2.3017 1L95 24.928 101.698 21H88.3017zm14.7513.3498L95.9754 25.5l7.0776 4.1502v-8.3004zM101.698 30L95 26.072 88.3017 30h13.3963zm-14.7506-.3498v-8.3004L94.0246 25.5l-7.0772 4.1502zM104 34H86v-1h18v1zM58 0h18v11H58V0zm2.3017 1L67 4.92802 73.6983 1H60.3017zm14.7509.34976L67.9754 5.5l7.0772 4.15024V1.34976zM73.6983 10L67 6.07198 60.3017 10h13.3966zm-14.7509-.34976V1.34976L66.0246 5.5l-7.0772 4.15024zM76 14H58v-1h18v1zM58 20h18v11H58V20zm2.3017 1L67 24.928 73.6983 21H60.3017zm14.7509.3498L67.9754 25.5l7.0772 4.1502v-8.3004zM73.6983 30L67 26.072 60.3017 30h13.3966zm-14.7509-.3498v-8.3004L66.0246 25.5l-7.0772 4.1502zM76 34H58v-1h18v1zM0 0h18v11H0V0zm2.30169 1L9 4.92802 15.6983 1H2.30169zm14.75091.34976L9.97538 5.5l7.07722 4.15024V1.34976zM15.6983 10L9 6.07198 2.30169 10H15.6983zM.947368 9.65024V1.34976L8.02462 5.5.947368 9.65024zM18 14H0v-1h18v1zM0 20h18v11H0V20zm2.30169 1L9 24.928 15.6983 21H2.30169zm14.75091.3498L9.97538 25.5l7.07722 4.1502v-8.3004zM15.6983 30L9 26.072 2.30169 30H15.6983zM.947368 29.6502v-8.3004L8.02462 25.5.947368 29.6502zM18 34H0v-1h18v1z" clip-rule="evenodd"/>
  </symbol>
  <symbol id="header-media" viewBox="0 0 104 35">
    <title>header-media</title>
    <path d="M51 19v-4l3 2.1053L51 19z"/>
    <path fill-rule="evenodd" d="M2.17542 1H101.824L55.6764 15.4212C55.064 13.9972 53.6484 13 52 13c-1.6485 0-3.0641.9972-3.6764 2.4213L2.17542 1zM48.0473 16.3827L1 1.68037V32.3212l9-2.7961V25h14.5653l1.5346-.4768.0017-.0005 21.9459-6.9043C48.0162 17.4168 48 17.2103 48 17c0-.2099.0162-.4161.0473-.6173zm.2767 2.197L27.9166 25H48v5H11.842l-9.65623 3H101.636l-10.7708-3H72v-5h3.7208l-20.0456-6.4186C55.0623 20.004 53.6474 21 52 21c-1.6481 0-3.0634-.9967-3.676-2.4203zm7.6282-.9596L79 25h15v4.8356l9 2.5066V1.68026L55.9526 16.3826c.0312.2012.0474.4074.0474.6174 0 .2109-.0163.418-.0478.6201zM93 29H73v-3h20v3zM0 34V0h104v34H0zm55-17c0 1.6569-1.3431 3-3 3s-3-1.3431-3-3 1.3431-3 3-3 3 1.3431 3 3z" clip-rule="evenodd"/>
  </symbol>
  <symbol id="header-simple" viewBox="0 0 104 35">
    <title>header-simple</title>
    <path fill-rule="evenodd" d="M48 30H10v-5h38v5z" clip-rule="evenodd"/>
    <path fill-rule="evenodd" d="M103 1H1v32h102V1zM0 0v34h104V0H0z" clip-rule="evenodd"/>
  </symbol>
  <symbol id="list-jobs" viewBox="0 0 104 35">
    <title>list-jobs</title>
    <path fill-rule="evenodd" d="M65 3H27V0h38v3zM104 8H32V7h72v1zM104 12H32v-1h72v1zM104 16H32v-1h72v1zM104 20H32v-1h72v1zM104 24H32v-1h72v1zM48 30H28v3h20v-3zm-21-1v5h22v-5H27zM11 21c5.5228 0 10-4.4772 10-10 0-5.52285-4.4772-10-10-10C5.47715 1 1 5.47715 1 11c0 5.5228 4.47715 10 10 10zm0 1c6.0751 0 11-4.9249 11-11 0-6.07513-4.9249-11-11-11C4.92487 0 0 4.92487 0 11c0 6.0751 4.92487 11 11 11z" clip-rule="evenodd"/>
    <path fill-rule="evenodd" d="M11.1382 15.5c-2.43203 0-3.49442 1.3687-3.70012 1.7415l-.87558-.483c.34602-.6272 1.71122-2.2585 4.5757-2.2585 2.8674 0 4.0785 1.6398 4.3314 2.3274l-.9386.3452c-.1149-.3124-.9636-1.6726-3.3928-1.6726zM11 12c1.6569 0 3-1.3431 3-3 0-1.65685-1.3431-3-3-3-1.65685 0-3 1.34315-3 3 0 1.6569 1.34315 3 3 3zm0 1c2.2091 0 4-1.7909 4-4 0-2.20914-1.7909-4-4-4-2.20914 0-4 1.79086-4 4 0 2.2091 1.79086 4 4 4zM16.0527 24.2236l-1.5-3 .8945-.4472 1.5 3-.8945.4472z" clip-rule="evenodd"/>
    <path fill-rule="evenodd" d="M20.8761 32.2018l-3.4312-7.4204c-.1159-.2507-.4131-.3599-.6637-.244-.2507.1159-.3599.413-.244.6637l3.4312 7.4204c.1159.2507.4131.3599.6637.244.2506-.1159.3599-.413.244-.6637zm-4.5146-8.5721c-.7519.3477-1.0796 1.2391-.7319 1.9911l3.4312 7.4204c.3476.7519 1.2391 1.0796 1.991.732.7519-.3477 1.0796-1.2392.7319-1.9911l-3.4312-7.4204c-.3477-.752-1.2391-1.0797-1.991-.732zM29.9 6.3002l-1.8459 2.4612-1.4076-1.40765.7071-.70711.5923.59235L29.1 5.7002l.8.6zM29.9 10.3002l-1.8459 2.4612-1.4076-1.4077.7071-.7071.5923.5924L29.1 9.7002l.8.6zM29.9 14.3002l-1.8459 2.4612-1.4076-1.4077.7071-.7071.5923.5924L29.1 13.7002l.8.6zM29.9 18.3002l-1.8459 2.4612-1.4076-1.4077.7071-.7071.5923.5924L29.1 17.7002l.8.6zM29.9 22.3002l-1.8459 2.4612-1.4076-1.4077.7071-.7071.5923.5924L29.1 21.7002l.8.6z" clip-rule="evenodd"/>
  </symbol>
  <symbol id="list-people" viewBox="0 0 104 35">
    <title>list-people</title>
    <path fill-rule="evenodd" d="M18 25H0v-3h18v3zM18 30H0v-1h18v1zM18 34H0v-1h18v1zM9 17c4.4183 0 8-3.5817 8-8 0-4.41828-3.5817-8-8-8-4.41828 0-8 3.58172-8 8 0 4.4183 3.58172 8 8 8zm0 1c4.9706 0 9-4.0294 9-9 0-4.97056-4.0294-9-9-9-4.97056 0-9 4.02944-9 9 0 4.9706 4.02944 9 9 9z" clip-rule="evenodd"/>
    <path fill-rule="evenodd" d="M9.13822 13.25c-2.43205 0-3.49444 1.3687-3.70014 1.7415l-.87558-.483c.34602-.6272 1.71122-2.2585 4.57572-2.2585 2.86738 0 4.07848 1.6398 4.33138 2.3274l-.9386.3452c-.1149-.3124-.9636-1.6726-3.39278-1.6726zM9 10c1.6569 0 3-1.34315 3-3s-1.3431-3-3-3C7.34315 4 6 5.34315 6 7s1.34315 3 3 3zm0 1c2.2091 0 4-1.79086 4-4s-1.7909-4-4-4C6.79086 3 5 4.79086 5 7s1.79086 4 4 4zM47 25H29v-3h18v3zM47 30H29v-1h18v1zM47 34H29v-1h18v1zM38 17c4.4183 0 8-3.5817 8-8 0-4.41828-3.5817-8-8-8s-8 3.58172-8 8c0 4.4183 3.5817 8 8 8zm0 1c4.9706 0 9-4.0294 9-9 0-4.97056-4.0294-9-9-9s-9 4.02944-9 9c0 4.9706 4.0294 9 9 9z" clip-rule="evenodd"/>
    <path fill-rule="evenodd" d="M38.1382 13.25c-2.432 0-3.4944 1.3687-3.7001 1.7415l-.8756-.483c.346-.6272 1.7112-2.2585 4.5757-2.2585 2.8674 0 4.0785 1.6398 4.3314 2.3274l-.9386.3452c-.1149-.3124-.9636-1.6726-3.3928-1.6726zM38 10c1.6569 0 3-1.34315 3-3s-1.3431-3-3-3-3 1.34315-3 3 1.3431 3 3 3zm0 1c2.2091 0 4-1.79086 4-4s-1.7909-4-4-4c-2.2091 0-4 1.79086-4 4s1.7909 4 4 4zM76 25H58v-3h18v3zM76 30H58v-1h18v1zM76 34H58v-1h18v1zM67 17c4.4183 0 8-3.5817 8-8 0-4.41828-3.5817-8-8-8s-8 3.58172-8 8c0 4.4183 3.5817 8 8 8zm0 1c4.9706 0 9-4.0294 9-9 0-4.97056-4.0294-9-9-9s-9 4.02944-9 9c0 4.9706 4.0294 9 9 9z" clip-rule="evenodd"/>
    <path fill-rule="evenodd" d="M67.1382 13.25c-2.432 0-3.4944 1.3687-3.7001 1.7415l-.8756-.483c.346-.6272 1.7112-2.2585 4.5757-2.2585 2.8674 0 4.0785 1.6398 4.3314 2.3274l-.9386.3452c-.1149-.3124-.9636-1.6726-3.3928-1.6726zM67 10c1.6569 0 3-1.34315 3-3s-1.3431-3-3-3-3 1.34315-3 3 1.3431 3 3 3zm0 1c2.2091 0 4-1.79086 4-4s-1.7909-4-4-4c-2.2091 0-4 1.79086-4 4s1.7909 4 4 4zM104 25H86v-3h18v3zM104 30H86v-1h18v1zM104 34H86v-1h18v1zM95 17c4.4183 0 8-3.5817 8-8 0-4.41828-3.5817-8-8-8s-8 3.58172-8 8c0 4.4183 3.5817 8 8 8zm0 1c4.9706 0 9-4.0294 9-9 0-4.97056-4.0294-9-9-9s-9 4.02944-9 9c0 4.9706 4.0294 9 9 9z" clip-rule="evenodd"/>
    <path fill-rule="evenodd" d="M95.1382 13.25c-2.432 0-3.4944 1.3687-3.7001 1.7415l-.8756-.483c.346-.6272 1.7112-2.2585 4.5757-2.2585 2.8674 0 4.0785 1.6398 4.3314 2.3274l-.9386.3452c-.1149-.3124-.9636-1.6726-3.3928-1.6726zM95 10c1.6569 0 3-1.34315 3-3s-1.3431-3-3-3-3 1.34315-3 3 1.3431 3 3 3zm0 1c2.2091 0 4-1.79086 4-4s-1.7909-4-4-4c-2.2091 0-4 1.79086-4 4s1.7909 4 4 4z" clip-rule="evenodd"/>
  </symbol>
  <symbol id="news" viewBox="0 0 104 35">
    <title>news</title>
    <path d="M31 12.9028c0-.828.672-1.5 1.5-1.5s1.5.672 1.5 1.5c0 .829-.672 1.5-1.5 1.5s-1.5-.671-1.5-1.5zm9 .5l-2.519 4-2.481-1.96-4 5.96h14l-5-8z"/>
    <path fill-rule="evenodd" d="M7.35714 1.90283H49.5V27.9901c0 .9641-.2322 2.4112-.9503 3.6359-.7331 1.2501-1.9844 2.2768-3.9579 2.2768H4.42857c-1.64814 0-2.64219-1.1041-3.19778-2.3223C.677716 30.3678.5 28.9381.5 27.9901V7.80759h6.85714V1.90283zm0 6.90476H1.5V27.9901c0 .8563.16514 2.1329.64064 3.1755.47298 1.0371 1.19322 1.7372 2.28793 1.7372 1.09472 0 1.81495-.7001 2.28794-1.7372.47549-1.0426.64063-2.3192.64063-3.1755V8.80759zM6.75603 32.9028H44.5918c1.5531 0 2.5059-.7775 3.0952-1.7826.6044-1.0307.813-2.2899.813-3.1301V2.90283H8.35714V27.9901c0 .948-.17771 2.3777-.73079 3.5904-.21815.4784-.50391.9391-.87032 1.3223z" clip-rule="evenodd"/>
    <path fill-rule="evenodd" d="M22 9.40283H12v-3h10v3zM27 14.4028H12v-1h15v1zM27 18.4028H12v-1h15v1zM27 22.4028H12v-1h15v1zM45 26.4028H12v-1h33v1zM77.9997 1.40283H78v.00078l-.0003-.00078zm-1.2517 0H60.2243l8.1545 3.64808 8.3692-3.64808zM59 1.95062v7.1885l8.1386-3.54757L59 1.95062zm0 8.45208v4.0001h19v-4.002l-.0004.0019H59zm19-1.04759V1.94795l-8.3861 3.65548L78 9.35511zM58 15.4028V.402832h21V15.4028H58zm2.898-6.00012l7.4756-3.25861 7.284 3.25861H60.898zM103 1.40283v.00078-.00078zm-1.252 0H85.2243l8.1545 3.64808 8.3692-3.64808zM84 1.95062v7.1885l8.1386-3.54757L84 1.95062zm0 8.45208v4.0001h19v-4.002.0019H84zm19-1.04759V1.94795l-8.3861 3.65548L103 9.35511zM83 15.4028V.402832h21V15.4028H83zm2.898-6.00012l7.4756-3.25861 7.2844 3.25861h-14.76zM77.9997 20.4028H78v.0008l-.0003-.0008zm-1.2517 0H60.2243l8.1545 3.6481 8.3692-3.6481zM59 20.9506v7.1885l8.1386-3.5476L59 20.9506zm0 8.4521v4.0001h19v-4.002l-.0004.0019H59zm19-1.0476v-7.4072l-8.3861 3.6555L78 28.3551zm-20 6.0477v-15h21v15H58zm2.898-6.0001l7.4756-3.2586 7.284 3.2586H60.898zM103 20.4028v.0008-.0008zm-1.252 0H85.2243l8.1545 3.6481 8.3692-3.6481zM84 20.9506v7.1885l8.1386-3.5476L84 20.9506zm0 8.4521v4.0001h19v-4.002.0019H84zm19-1.0476v-7.4072l-8.3861 3.6555L103 28.3551zm-20 6.0477v-15h21v15H83zm2.898-6.0001l7.4756-3.2586 7.2844 3.2586h-14.76z" clip-rule="evenodd"/>
  </symbol>
  <symbol id="newsletter" viewBox="0 0 104 35">
    <title>newsletter</title>
    <path fill-rule="evenodd" d="M43 0H5v14H0v20h48V14h-5V0zm0 15v1.0779L45.6665 15H43zm-1 1.4822V1H6v15.5685l17.5043 7.3907L42 16.4822zm-37-.3359V15H2.28517L5 16.1463zM1 33V15.5429l22.496 9.4983L47 15.5395V33H1zM81 10H54V7h27v3z" clip-rule="evenodd"/>
    <path fill-rule="evenodd" d="M39 11H10v-1h29v1zM17.8359 7H9.83594V6h7.99996v1zM104 15H54v-1h50v1zM104 19H54v-1h50v1zM39 15H10v-1h29v1zM75 26H55v3h20v-3zm-21-1v5h22v-5H54z" clip-rule="evenodd"/>
  </symbol>
  <symbol id="program" viewBox="0 0 104 35">
    <title>program</title>
    <path fill-rule="evenodd" d="M77.9997 1.40283H78v.00078l-.0003-.00078zm-1.2517 0H60.2243l8.1545 3.64808 8.3692-3.64808zM59 1.95062v7.1885l8.1386-3.54757L59 1.95062zm0 8.45208v4.0001h19v-4.002l-.0004.0019H59zm19-1.04759V1.94795l-8.3861 3.65548L78 9.35511zM58 15.4028V.402832h21V15.4028H58zm2.898-6.00012l7.4756-3.25861 7.284 3.25861H60.898zM103 1.40283v.00078-.00078zm-1.252 0H85.2243l8.1545 3.64808 8.3692-3.64808zM84 1.95062v7.1885l8.1386-3.54757L84 1.95062zm0 8.45208v4.0001h19v-4.002.0019H84zm19-1.04759V1.94795l-8.3861 3.65548L103 9.35511zM83 15.4028V.402832h21V15.4028H83zm2.898-6.00012l7.4756-3.25861 7.2844 3.25861h-14.76zM77.9997 20.4028H78v.0008l-.0003-.0008zm-1.2517 0H60.2243l8.1545 3.6481 8.3692-3.6481zM59 20.9506v7.1885l8.1386-3.5476L59 20.9506zm0 8.4521v4.0001h19v-4.002l-.0004.0019H59zm19-1.0476v-7.4072l-8.3861 3.6555L78 28.3551zm-20 6.0477v-15h21v15H58zm2.898-6.0001l7.4756-3.2586 7.284 3.2586H60.898zM103 20.4028v.0008-.0008zm-1.252 0H85.2243l8.1545 3.6481 8.3692-3.6481zM84 20.9506v7.1885l8.1386-3.5476L84 20.9506zm0 8.4521v4.0001h19v-4.002.0019H84zm19-1.0476v-7.4072l-8.3861 3.6555L103 28.3551zm-20 6.0477v-15h21v15H83zm2.898-6.0001l7.4756-3.2586 7.2844 3.2586h-14.76zM14.5 13.4028l-.5-3.25 19.5-2.74997.5 3.24997-19.5 2.75zm0 0H34v14H14.5v-14zm18.1962.586l-.7108 1.8861-3.0413-.0195.9577-1.9256 2.7944.059zm-6.7938 1.8466l.7108-1.8861-2.7944-.059-.9577 1.9256 3.0413.0195zm-5.8644-1.8461l-.7108 1.8861-3.0413-.0195.9577-1.9256 2.7944.059zm-3.0374-1.493l-.9761-1.7634 2.7565-.4627 1.2261 1.7668-3.0065.4593zm5.0366-2.68189l.9761 1.76339 3.0065-.4592-1.2261-1.76684-2.7565.46265zm7.4888.85179l-.9761-1.76341 2.7565-.46265 1.2261 1.76676-3.0065.4593zM33 16.4028H15.5v10H33v-10z" clip-rule="evenodd"/>
    <path fill-rule="evenodd" d="M48 1.40283H1V33.4028h47V1.40283zM0 .402832V34.4028h49V.402832H0z" clip-rule="evenodd"/>
  </symbol>
  <symbol id="schedule" viewBox="0 0 104 35">
    <title>schedule</title>
    <path fill-rule="evenodd" d="M33 3.40283H1V33.4028h32V3.40283zm-33-1V34.4028h34V2.40283H0z" clip-rule="evenodd"/>
    <path d="M12.666 21.811h.9502c.597-.0091 1.0664-.1663 1.4082-.4716.3418-.3054.5127-.7178.5127-1.2373 0-1.1667-.581-1.75-1.7432-1.75-.5468 0-.9843.1572-1.3125.4716-.3235.3099-.4853.7224-.4853 1.2373h-1.2647c0-.7884.2872-1.4423.8614-1.9619.5787-.5241 1.3125-.7861 2.2011-.7861.9388 0 1.6749.2484 2.2081.7451.5332.4968.7998 1.1872.7998 2.0713 0 .4329-.1413.8522-.4239 1.2578-.278.4056-.6585.7087-1.1416.9092.5469.1732.9685.4603 1.2647.8613.3008.4011.4511.891.4511 1.4697 0 .8933-.2916 1.6019-.875 2.126-.5833.5241-1.3421.7862-2.2763.7862-.9343 0-1.6953-.253-2.2832-.7588-.5834-.5059-.875-1.1735-.875-2.003h1.2715c0 .5241.1709.9434.5127 1.2578.3418.3145.7998.4717 1.374.4717.6107 0 1.0778-.1595 1.4013-.4785.3236-.319.4854-.777.4854-1.374 0-.5788-.1777-1.0231-.5332-1.333-.3555-.3099-.8682-.4694-1.5381-.4785h-.9502V21.811zM22.8447 27.4028h-1.2715v-8.4287l-2.5498.9365v-1.1484l3.6231-1.3603h.1982v10.0009z"/>
    <path fill-rule="evenodd" d="M7 .402832V6.90283H6V.402832h1zm21 0V6.90283h-1V.402832h1zM.5 10.9028h33v1H.5v-1z" clip-rule="evenodd"/>
    <path fill-rule="evenodd" d="M6.5 8.40283c.82843 0 1.5-.67157 1.5-1.5s-.67157-1.5-1.5-1.5-1.5.67157-1.5 1.5.67157 1.5 1.5 1.5zm0 1c1.38071 0 2.5-1.11929 2.5-2.5s-1.11929-2.5-2.5-2.5-2.5 1.11929-2.5 2.5 1.11929 2.5 2.5 2.5zM27.5 8.40283c.8284 0 1.5-.67157 1.5-1.5s-.6716-1.5-1.5-1.5-1.5.67157-1.5 1.5.6716 1.5 1.5 1.5zm0 1c1.3807 0 2.5-1.11929 2.5-2.5s-1.1193-2.5-2.5-2.5-2.5 1.11929-2.5 2.5 1.1193 2.5 2.5 2.5zM77 4.40283H39v-3h38v3zM104 9.40283H44v-1h60v1zM104 13.4028H44v-1h60v1zM104 17.4028H44v-1h60v1zM104 21.4028H44v-1h60v1zM104 25.4028H44v-1h60v1zM41.9 7.70303l-1.8459 2.46117-1.4076-1.40762.7071-.70711.5923.59235L41.1 7.10303l.8.6zM41.9 11.703l-1.8459 2.4612-1.4076-1.4076.7071-.7071.5923.5923L41.1 11.103l.8.6zM41.9 15.703l-1.8459 2.4612-1.4076-1.4076.7071-.7071.5923.5923L41.1 15.103l.8.6zM41.9 19.703l-1.8459 2.4612-1.4076-1.4076.7071-.7071.5923.5923L41.1 19.103l.8.6zM41.9 23.703l-1.8459 2.4612-1.4076-1.4076.7071-.7071.5923.5923L41.1 23.103l.8.6zM60 30.4028H40v3h20v-3zm-21-1v5h22v-5H39z" clip-rule="evenodd"/>
  </symbol>
  <symbol id="testimony" viewBox="0 0 104 35">
    <title>testimony</title>
    <path fill-rule="evenodd" d="M79 8H40V5h39v3zM104 14H40v-1h64v1zM104 18H40v-1h64v1zM74 22H40v-1h34v1zM54 29H40v-1h14v1zM17 33c8.8366 0 16-7.1634 16-16 0-8.83656-7.1634-16-16-16C8.16344 1 1 8.16344 1 17c0 8.8366 7.16344 16 16 16zm0 1c9.3888 0 17-7.6112 17-17 0-9.38884-7.6112-17-17-17C7.61116 0 0 7.61116 0 17c0 9.3888 7.61116 17 17 17z" clip-rule="evenodd"/>
    <path fill-rule="evenodd" d="M16.7928 22.5c-5.4266 0-7.85272 2.8845-8.36174 3.7529l-.8627-.5058C8.23175 24.6155 10.9643 21.5 16.7928 21.5c5.8282 0 8.205 3.1214 8.6726 4.318l-.9314.364c-.314-.8034-2.3142-3.682-7.7412-3.682zM17 18c2.7614 0 5-2.2386 5-5s-2.2386-5-5-5-5 2.2386-5 5 2.2386 5 5 5zm0 1c3.3137 0 6-2.6863 6-6 0-3.31371-2.6863-6-6-6s-6 2.68629-6 6c0 3.3137 2.6863 6 6 6z" clip-rule="evenodd"/>
  </symbol>
  <symbol id="text-full" viewBox="0 0 104 35">
    <title>text-full</title>
    <path fill-rule="evenodd" d="M29 3H0V0h29v3zm75 7H0V9h104v1zM0 18h104v-1H0v1zm104 8H0v-1h104v1zM0 34h52v-1H0v1z" clip-rule="evenodd"/>
  </symbol>
  <symbol id="text-icons" viewBox="0 0 104 35">
    <title>text-icons</title>
    <path fill-rule="evenodd" d="M0 3h29V0H0v3zm0 7h43V9H0v1zm43 8H0v-1h43v1zM0 26h43v-1H0v1zm22 8H0v-1h22v1zM66.2929 6L62 10.2929V1.70711L66.2929 6zM67 5.29289L71.2929 1h-8.5858L67 5.29289zM67.7071 6L72 1.70711v8.58579L67.7071 6zM67 6.70711L71.2929 11h-8.5858L67 6.70711zM61 0h12v12H61V0zm35.2929 11L92 6.70711 87.7071 11h8.5858zM97 10.2929V1.70711L92.7071 6 97 10.2929zM96.2929 1h-8.5858L92 5.29289 96.2929 1zM87 10.2929L91.2929 6 87 1.70711v8.58579zM61 18h18v-1H61v1zm18 5H61v-1h18v1zm7-23h12v12H86V0zm18 18H86v-1h18v1zm-18 5h18v-1H86v1z" clip-rule="evenodd"/>
  </symbol>
  <symbol id="text-image" viewBox="0 0 104 35">
    <title>text-image</title>
    <path fill-rule="evenodd" d="M29 3H0V0h29v3zm14 7H0V9h43v1zM0 18h43v-1H0v1zm43 8H0v-1h43v1zM0 34h22v-1H0v1zM103 1H62v32h41V1zM62 0h-1v34h43V0H62zm15.5 11c-.828 0-1.5.672-1.5 1.5 0 .829.672 1.5 1.5 1.5s1.5-.671 1.5-1.5c0-.828-.672-1.5-1.5-1.5zm4.981 6L85 13l5 8H76l4-5.96L82.481 17z" clip-rule="evenodd"/>
  </symbol>
  <symbol id="text-two-col" viewBox="0 0 104 35">
    <title>text-two-col</title>
    <path fill-rule="evenodd" d="M0 3h29V0H0v3zm0 7h43V9H0v1zm43 8H0v-1h43v1zM0 26h43v-1H0v1zm22 8H0v-1h22v1zm39-24h43V9H61v1zm29-7H61V0h29v3zM61 18h43v-1H61v1zm43 8H61v-1h43v1zm-43 8h22v-1H61v1z" clip-rule="evenodd"/>
  </symbol>
  <symbol id="distribution" viewBox="0 0 104 35">
    <title>distribution</title>
    <path fill-rule="evenodd" d="M13.9154 4.31102C16.1949 1.76931 19.7232 0 24.9127 0c6.9319 0 11.1024 3.75699 12.4928 8.11563 3.0024-1.27946 7.1303-.88397 10.9295 2.22217 2.5175 2.0582 3.6763 4.9563 4.0351 7.7174.3572 2.748-.0551 5.5033-.8367 7.4915C50.02 29.3959 46.3267 34 39.5 34H13c-2.735 0-5.94457-.7342-8.51235-2.6182C1.85655 29.4513 0 26.3792 0 22c0-7.942 5.93756-12.29427 10.8078-11.4531.4611-2.05565 1.3894-4.31993 3.1076-6.23588zm2.2334 2.00296c-1.6871 1.8813-2.4297 4.29752-2.658 6.35162l-.2383 2.145-1.9274-.971C8.81753 12.5763 3 14.5855 3 22c0 3.4139 1.39345 5.5918 3.26235 6.963C8.19457 30.3807 10.735 31 13 31h26.5c5.1733 0 8.0029-3.4009 9.2414-6.551.5942-1.5115.9463-3.7558.6537-6.0072-.2909-2.2385-1.1958-4.34-2.959-5.7814-3.8148-3.11894-7.4224-2.4691-9.0718-1.0307l-2.1838 1.9045-.2943-2.8827C34.5117 6.98335 31.4932 3 24.9127 3c-4.4418 0-7.1197 1.48069-8.7639 3.31398z" clip-rule="evenodd"/>
    <path d="M23 25.5v-12l8 6.3158L23 25.5z"/>
    <path fill-rule="evenodd" d="M77.9997 1H78v.00078L77.9997 1zM76.748 1H60.2243l8.1545 3.64808L76.748 1zM59 1.54779v7.1885l8.1386-3.54757L59 1.54779zm0 8.45206V14h19V9.99797l-.0004.00188H59zm19-1.04757V1.54511L69.6139 5.2006 78 8.95228zM58 15V0h21v15H58zm2.898-6.00015l7.4756-3.25861 7.284 3.25861H60.898zM103 1v.00078V1zm-1.252 0H85.2243l8.1545 3.64808L101.748 1zM84 1.54779v7.1885l8.1386-3.54757L84 1.54779zm0 8.45206V14h19V9.99797v.00188H84zm19-1.04757V1.54511L94.6139 5.2006 103 8.95228zM83 15V0h21v15H83zm2.898-6.00015l7.4756-3.25861 7.2844 3.25861h-14.76zM77.9997 20H78v.0008L77.9997 20zm-1.2517 0H60.2243l8.1545 3.6481L76.748 20zM59 20.5478v7.1885l8.1386-3.5476L59 20.5478zm0 8.4521V33h19v-4.002l-.0004.0019H59zm19-1.0476v-7.4072l-8.3861 3.6555L78 27.9523zM58 34V19h21v15H58zm2.898-6.0001l7.4756-3.2587 7.284 3.2587H60.898zM103 20v.0008V20zm-1.252 0H85.2243l8.1545 3.6481L101.748 20zM84 20.5478v7.1885l8.1386-3.5476L84 20.5478zm0 8.4521V33h19v-4.002.0019H84zm19-1.0476v-7.4072l-8.3861 3.6555L103 27.9523zM83 34V19h21v15H83zm2.898-6.0001l7.4756-3.2587 7.2844 3.2587h-14.76z" clip-rule="evenodd"/>
  </symbol>
</svg>