<svg xmlns="http://www.w3.org/2000/svg" style="display: none;">
  <symbol id="contact-phone" viewBox="0 0 24 24">
    <title>phone</title>
    <path d="M12 0c-6.627 0-12 5.373-12 12s5.373 12 12 12 12-5.373 12-12-5.373-12-12-12zm3.445 17.827c-3.684 1.684-9.401-9.43-5.8-11.308l1.053-.519 1.746 3.409-1.042.513c-1.095.587 1.185 5.04 2.305 4.497l1.032-.505 1.76 3.397-1.054.516z"/>
  </symbol>
  <symbol id="contact-facebook" viewBox="0 0 24 24">
    <title>facebook</title>
    <path d="M12 0c-6.627 0-12 5.373-12 12s5.373 12 12 12 12-5.373 12-12-5.373-12-12-12zm3 8h-1.35c-.538 0-.65.221-.65.778v1.222h2l-.209 2h-1.791v7h-3v-7h-2v-2h2v-2.308c0-1.769.931-2.692 3.029-2.692h1.971v3z"/>
  </symbol>
  <symbol id="contact-slack" viewBox="0 0 24 24" fill-rule="evenodd" clip-rule="evenodd">
    <title>slack</title>
    <path d="M12 0c-6.626 0-12 5.372-12 12 0 6.627 5.374 12 12 12 6.627 0 12-5.373 12-12 0-6.628-5.373-12-12-12zm6.225 14.18l-1.418.474.49 1.467c.193.594-.122 1.24-.717 1.432-.671.19-1.253-.187-1.437-.715l-.49-1.469-2.924.979.49 1.468c.228.702-.253 1.483-1.068 1.483-.514 0-.934-.329-1.085-.767l-.492-1.468-1.418.472c-.662.192-1.251-.185-1.436-.717-.192-.593.123-1.24.718-1.432l1.418-.472-.945-2.814-1.419.472c-.79.224-1.492-.344-1.492-1.073 0-.477.297-.923.774-1.077l1.419-.472-.491-1.467c-.192-.595.123-1.242.719-1.434.595-.192 1.242.122 1.435.717l.492 1.467 2.923-.978-.49-1.468c-.235-.722.283-1.489 1.075-1.489.478 0 .925.297 1.08.773l.49 1.468 1.418-.472c.595-.193 1.243.123 1.436.717.193.594-.123 1.24-.718 1.432l-1.419.472.946 2.814 1.419-.472c.725-.234 1.492.282 1.492 1.072 0 .478-.297.923-.775 1.077zm-5.245-3.749l-2.922.977.944 2.816 2.923-.976-.945-2.817z"/>
  </symbol>
  <symbol id="contact-mail" viewBox="0 0 24 24">
    <title>mail</title>
    <path d="M12 .02c-6.627 0-12 5.373-12 12s5.373 12 12 12 12-5.373 12-12-5.373-12-12-12zm6.99 6.98l-6.99 5.666-6.991-5.666h13.981zm.01 10h-14v-8.505l7 5.673 7-5.672v8.504z"/>
  </symbol>
  <symbol id="nav-log-out" viewBox="0 0 24 24">
    <title>log-out</title>
    <path d="M16 9v-4l8 7-8 7v-4h-8v-6h8zm-2 10v-.083c-1.178.685-2.542 1.083-4 1.083-4.411 0-8-3.589-8-8s3.589-8 8-8c1.458 0 2.822.398 4 1.083v-2.245c-1.226-.536-2.577-.838-4-.838-5.522 0-10 4.477-10 10s4.478 10 10 10c1.423 0 2.774-.302 4-.838v-2.162z"/>
  </symbol>
  <symbol id="nav-home" viewBox="0 0 24 24">
    <title>home</title>
    <path d="M20 7.093v-5.093h-3v2.093l3 3zm4 5.907l-12-12-12 12h3v10h18v-10h3zm-5 8h-14v-10.26l7-6.912 7 6.99v10.182zm-5-1h-4v-6h4v6z"/>
  </symbol>
  <symbol id="nav-pages" viewBox="0 0 24 24">
    <title>pages</title>
    <path d="M4 4v20h20v-20h-20zm18 18h-16v-13h16v13zm-3-3h-10v-1h10v1zm0-3h-10v-1h10v1zm0-3h-10v-1h10v1zm2-11h-19v19h-2v-21h21v2z"/>
  </symbol>
  <symbol id="nav-program" viewBox="0 0 24 24">
    <title>program</title>
    <path d="M4 5v18h20v-18h-20zm4 16h-2v-2h2v2zm0-4h-2v-2h2v2zm0-4h-2v-2h2v2zm0-4h-2v-2h2v2zm10 12h-8v-6h8v6zm0-8h-8v-6h8v6zm4 8h-2v-2h2v2zm0-4h-2v-2h2v2zm0-4h-2v-2h2v2zm0-4h-2v-2h2v2zm-1-6h-19v17h-2v-19h21v2z"/>
  </symbol>
  <symbol id="nav-distribution" viewBox="0 0 24 24">
    <title>distribution</title>
    <path d="M12 2c5.514 0 10 4.486 10 10s-4.486 10-10 10-10-4.486-10-10 4.486-10 10-10zm0-2c-6.627 0-12 5.373-12 12s5.373 12 12 12 12-5.373 12-12-5.373-12-12-12zm-3 17v-10l9 5.146-9 4.854z"/>
  </symbol>
  <symbol id="nav-posts" viewBox="0 0 24 24">
    <title>posts</title>
    <path d="M21 9.662c-2.287.194-5.197 1.038-7 1.794v-1.064c1.933-.721 4.598-1.54 7-1.745v1.015zm0 2.031c-2.287.194-5.197 1.038-7 1.794v-1.064c1.933-.721 4.598-1.54 7-1.745v1.015zm0 2.031c-2.287.194-5.197 1.038-7 1.794v-1.064c1.933-.721 4.598-1.54 7-1.745v1.015zm0 2.031c-2.287.194-5.197 1.038-7 1.794v-1.064c1.933-.721 4.598-1.54 7-1.745v1.015zm0-9.951c-2.402.204-5.068 1.024-7 1.745v1.933c1.804-.756 4.713-1.6 7-1.794v-1.884zm-18 2.843c2.402.205 5.067 1.024 7 1.745v1.064c-1.803-.756-4.713-1.6-7-1.794v-1.015zm0 2.031c2.402.205 5.067 1.024 7 1.745v1.064c-1.803-.756-4.713-1.6-7-1.794v-1.015zm0 2.031c2.402.205 5.067 1.024 7 1.745v1.064c-1.803-.756-4.713-1.6-7-1.794v-1.015zm0 2.032c2.402.205 5.067 1.024 7 1.745v1.064c-1.803-.756-4.713-1.6-7-1.794v-1.015zm0-7.054c2.287.194 5.196 1.038 7 1.794v-1.933c-1.932-.72-4.598-1.54-7-1.744v1.883zm9-2.724c-3.063-1.671-7.776-2.755-12-2.963v17c4.289.206 8.195 1.249 12 3 3.805-1.751 7.711-2.794 12-3v-17c-4.224.208-8.937 1.292-12 2.963zm-10-.791c4.264.496 6.86 1.467 9 2.545v12.702c-2.968-1.184-5.939-1.95-9-2.271v-12.976zm20 12.975c-3.061.321-6.032 1.088-9 2.271v-12.701c2.187-1.103 4.757-2.051 9-2.544v12.974z"/>
  </symbol>
  <symbol id="nav-users" viewBox="0 0 24 24">
    <title>users</title>
    <path d="M12 0c-6.627 0-12 5.373-12 12s5.373 12 12 12 12-5.373 12-12-5.373-12-12-12zm7.753 18.305c-.261-.586-.789-.991-1.871-1.241-2.293-.529-4.428-.993-3.393-2.945 3.145-5.942.833-9.119-2.489-9.119-3.388 0-5.644 3.299-2.489 9.119 1.066 1.964-1.148 2.427-3.393 2.945-1.084.25-1.608.658-1.867 1.246-1.405-1.723-2.251-3.919-2.251-6.31 0-5.514 4.486-10 10-10s10 4.486 10 10c0 2.389-.845 4.583-2.247 6.305z"/>
  </symbol>
  <symbol id="nav-archive" viewBox="0 0 24 24">
    <title>archive</title>
    <path d="M18.546 1h-13.069l-5.477 8.986v13.014h24v-13.014l-5.454-8.986zm-11.946 2h10.82l4.249 7h-19.335l4.266-7zm-4.6 18v-9h20v9h-20zm3-12l.607-1h12.786l.607 1h-14zm12.787-2h-11.572l.606-1h10.359l.607 1zm-1.215-2h-9.144l.607-1h7.931l.606 1zm-1.572 11h-6c-.553 0-1-.448-1-1s.447-1 1-1h6c.553 0 1 .448 1 1s-.447 1-1 1z"/>
  </symbol>
  <symbol id="nav-camera" viewBox="0 0 24 24">
    <title>camera</title>
    <path d="M21 9.236v3.528l-2-1v-1.528l2-1zm2-3.236l-6 3v4l6 3v-10zm-12.617 11h-2.766l-5.588 5.586 1.414 1.414 4.557-4.556v4.553h2v-4.553l4.557 4.556 1.414-1.414-5.588-5.586zm3.117-15c.827 0 1.5.673 1.5 1.5s-.673 1.5-1.5 1.5-1.5-.673-1.5-1.5.673-1.5 1.5-1.5zm-9 0c.827 0 1.5.673 1.5 1.5s-.673 1.5-1.5 1.5-1.5-.673-1.5-1.5.673-1.5 1.5-1.5zm9-2c-1.933 0-3.5 1.567-3.5 3.5s1.567 3.5 3.5 3.5 3.5-1.567 3.5-3.5-1.567-3.5-3.5-3.5zm-9 0c-1.933 0-3.5 1.567-3.5 3.5s1.567 3.5 3.5 3.5 3.5-1.567 3.5-3.5-1.567-3.5-3.5-3.5zm9 9c-.169 0-.335-.016-.5-.031v3.531c0 .276-.224.5-.5.5h-7c-.276 0-.5-.224-.5-.5v-3.531c-.165.015-.331.031-.5.031-.521 0-1.022-.078-1.5-.213v4.713c0 .829.672 1.5 1.5 1.5h9c.828 0 1.5-.671 1.5-1.5v-4.713c-.478.135-.979.213-1.5.213z"/>
  </symbol>
  <symbol id="nav-tags" viewBox="0 0 24 24" fill-rule="evenodd" clip-rule="evenodd">
    <title>tags</title>
    <path d="M22 24h-17c-1.657 0-3-1.343-3-3v-18c0-1.657 1.343-3 3-3h17v24zm-2-4h-14.505c-1.375 0-1.375 2 0 2h14.505v-2zm0-18h-3v9l-2-1.547-2 1.547v-9h-8v16h15v-16z"/>
  </symbol>
  <symbol id="nav-settings" viewBox="0 0 24 24">
    <title>settings</title>
    <path d="M20.715 24c-.864 0-1.711-.351-2.322-.962l-10.953-10.952c-.275-.274-.655-.432-1.044-.432l-.111.004c-1.681.129-3.373-.481-4.584-1.692-1.097-1.099-1.701-2.561-1.701-4.117 0-1.046.237-2.225.715-3.279l3.809 3.811c.436-.073.968-.393 1.405-.935.283-.35.427-.675.466-.91l-3.826-3.826c1.056-.476 2.219-.71 3.255-.71 1.533 0 3.043.601 4.143 1.702 1.208 1.209 1.823 2.88 1.69 4.584-.031.428.125.851.43 1.156l10.951 10.951c.62.621.962 1.446.962 2.322 0 1.811-1.474 3.285-3.285 3.285zm-14.319-14.343c.915 0 1.81.371 2.456 1.018l10.953 10.951c.239.24.571.377.909.377.71 0 1.288-.577 1.288-1.287 0-.344-.134-.667-.378-.911l-10.949-10.951c-.715-.716-1.083-1.707-1.009-2.718.088-1.127-.317-2.227-1.111-3.022-.493-.492-1.098-.833-1.758-1l1.49 1.491c.218 1.001.125 1.947-.804 3.097-1.002 1.243-2.292 1.932-3.88 1.586l-1.489-1.49c.167.66.508 1.266 1 1.759.796.794 1.893 1.2 3.017 1.11l.265-.01zm14.304 10.543c-.276 0-.5.224-.5.5s.224.5.5.5.5-.224.5-.5-.223-.5-.5-.5zm-11.32-3.346l-4.75 4.789c-.166.166-.437.166-.603 0-.165-.166-.166-.436 0-.602l4.751-4.789-.937-.936-4.743 4.781c-.165.168-.435.167-.601.001-.166-.167-.166-.436 0-.602l4.743-4.781-1.005-1.005-5.188 5.226-1.047 5.064 5.203-.912 5.187-5.225-1.01-1.009zm5.306-9.643l4.937-4.977c.167-.167.435-.167.603-.001.166.166.166.437 0 .603l-4.938 4.977.935.935 4.932-4.971c.165-.165.435-.165.601 0 .166.167.166.437.001.602l-4.933 4.971 1.012 1.012 6.164-6.21-4.152-4.152-6.164 6.209 1.002 1.002z"/>
  </symbol>
  <symbol id="check-mark" viewBox="0 0 24 24">
    <title>check-mark</title>
    <path d="M20.285 2l-11.285 11.567-5.286-5.011-3.714 3.716 9 8.728 15-15.285z"/>
  </symbol>
  <symbol id="arrow-right" viewBox="0 0 24 24">
    <title>arrow-right</title>
    <path d="M24 12l-12-8v5h-12v6h12v5z"/>
  </symbol>
  <symbol id="lock" viewBox="0 0 24 24">
    <title>lock</title>
    <path d="M17 9.761v-4.761c0-2.761-2.238-5-5-5-2.763 0-5 2.239-5 5v4.761c-1.827 1.466-3 3.714-3 6.239 0 4.418 3.582 8 8 8s8-3.582 8-8c0-2.525-1.173-4.773-3-6.239zm-8-4.761c0-1.654 1.346-3 3-3s3 1.346 3 3v3.587c-.927-.376-1.938-.587-3-.587s-2.073.211-3 .587v-3.587zm4 11.723v2.277h-2v-2.277c-.596-.347-1-.984-1-1.723 0-1.104.896-2 2-2s2 .896 2 2c0 .738-.404 1.376-1 1.723z"/>
  </symbol>
  <symbol id="gear" viewBox="0 0 24 24">
    <title>gear</title>
    <path d="M24 13.616v-3.232c-1.651-.587-2.694-.752-3.219-2.019v-.001c-.527-1.271.1-2.134.847-3.707l-2.285-2.285c-1.561.742-2.433 1.375-3.707.847h-.001c-1.269-.526-1.435-1.576-2.019-3.219h-3.232c-.582 1.635-.749 2.692-2.019 3.219h-.001c-1.271.528-2.132-.098-3.707-.847l-2.285 2.285c.745 1.568 1.375 2.434.847 3.707-.527 1.271-1.584 1.438-3.219 2.02v3.232c1.632.58 2.692.749 3.219 2.019.53 1.282-.114 2.166-.847 3.707l2.285 2.286c1.562-.743 2.434-1.375 3.707-.847h.001c1.27.526 1.436 1.579 2.019 3.219h3.232c.582-1.636.75-2.69 2.027-3.222h.001c1.262-.524 2.12.101 3.698.851l2.285-2.286c-.744-1.563-1.375-2.433-.848-3.706.527-1.271 1.588-1.44 3.221-2.021zm-12 2.384c-2.209 0-4-1.791-4-4s1.791-4 4-4 4 1.791 4 4-1.791 4-4 4z"/>
  </symbol>
  <symbol id="info-circle" viewBox="0 0 24 24">
    <title>info-circle</title>
    <path d="M12 0c-6.627 0-12 5.373-12 12s5.373 12 12 12 12-5.373 12-12-5.373-12-12-12zm-.001 5.75c.69 0 1.251.56 1.251 1.25s-.561 1.25-1.251 1.25-1.249-.56-1.249-1.25.559-1.25 1.249-1.25zm2.001 12.25h-4v-1c.484-.179 1-.201 1-.735v-4.467c0-.534-.516-.618-1-.797v-1h3v6.265c0 .535.517.558 1 .735v.999z"/>
  </symbol>
  <symbol id="translations" viewBox="0 0 24 24">
    <title>translations</title>
    <path d="M11.088 8.063c.062-.243.1-.426.135-.605l-1.1-.214-.109.5c-.371-.055-.767-.061-1.166-.021.009-.268.025-.531.049-.784h1.229v-1.042h-1.082c.054-.265.099-.424.144-.575l-1.074-.322c-.079.263-.144.521-.211.897h-1.225v1.042h1.092c-.029.336-.046.685-.051 1.038-1.207.443-1.719 1.288-1.719 2.053 0 .904.714 1.7 1.842 1.598 1.401-.128 2.337-1.186 2.885-2.487.567.327.805.876.591 1.385-.197.471-.78.919-1.892.896v1.121c1.234.019 2.448-.45 2.925-1.583.464-1.107-.067-2.317-1.263-2.897zm-1.446.766c-.175.387-.405.772-.698 1.075-.045-.323-.076-.676-.092-1.054.267-.035.537-.041.79-.021zm-1.894.362c.03.473.084.909.158 1.298-.998.183-1.038-.801-.158-1.298zm-5.748.161c0 1.873.849 2.943 1.683 3.943.031 1 .085 1.668-.333 3.183 1.748-.558 2.038-.778 3.008-1.374 1 .244 1.474.381 2.611.491-.094.708-.081 1.275.055 2.023-.752-.06-1.528-.178-2.33-.374-1.397.857-4.481 1.725-6.649 2.115.811-1.595 1.708-3.785 1.661-5.312-1.091-1.305-1.706-2.985-1.706-4.695 0-4.826 4.719-8.352 10-8.352 5.237 0 9.977 3.484 9.998 8.318-.644-.175-1.322-.277-2.021-.314-.229-3.34-3.713-6.004-7.977-6.004-4.411 0-8 2.85-8 6.352zm15.657 5.429l.725 2.074h-1.445l.72-2.074zm6.343 1.666c0-3.158-3.089-5.467-6.546-5.467-3.436 0-6.546 2.293-6.546 5.467 0 2.8 2.633 5.442 6.498 5.442.699 0 1.44-.087 2.213-.274.914.561 2.933 1.127 4.352 1.385-.53-1.045-1.117-2.479-1.088-3.479.714-.853 1.117-1.954 1.117-3.074zm-4.851 2.553l-.456-1.27h-2.062l-.451 1.27h-1.18l2.099-5.5h1.101l2.091 5.5h-1.142z"/>
  </symbol>
  <symbol id="eye-off" viewBox="0 0 24 24">
    <title>eye off</title>
    <path d="M19.604 2.562l-3.346 3.137c-1.27-.428-2.686-.699-4.243-.699-7.569 0-12.015 6.551-12.015 6.551s1.928 2.951 5.146 5.138l-2.911 2.909 1.414 1.414 17.37-17.035-1.415-1.415zm-6.016 5.779c-3.288-1.453-6.681 1.908-5.265 5.206l-1.726 1.707c-1.814-1.16-3.225-2.65-4.06-3.66 1.493-1.648 4.817-4.594 9.478-4.594.927 0 1.796.119 2.61.315l-1.037 1.026zm-2.883 7.431l5.09-4.993c1.017 3.111-2.003 6.067-5.09 4.993zm13.295-4.221s-4.252 7.449-11.985 7.449c-1.379 0-2.662-.291-3.851-.737l1.614-1.583c.715.193 1.458.32 2.237.32 4.791 0 8.104-3.527 9.504-5.364-.729-.822-1.956-1.99-3.587-2.952l1.489-1.46c2.982 1.9 4.579 4.327 4.579 4.327z"/>
  </symbol>
  <symbol id="eye" viewBox="0 0 24 24">
    <title>eye</title>
    <path d="M12.015 7c4.751 0 8.063 3.012 9.504 4.636-1.401 1.837-4.713 5.364-9.504 5.364-4.42 0-7.93-3.536-9.478-5.407 1.493-1.647 4.817-4.593 9.478-4.593zm0-2c-7.569 0-12.015 6.551-12.015 6.551s4.835 7.449 12.015 7.449c7.733 0 11.985-7.449 11.985-7.449s-4.291-6.551-11.985-6.551zm-.015 3c-2.209 0-4 1.792-4 4 0 2.209 1.791 4 4 4s4-1.791 4-4c0-2.208-1.791-4-4-4z"/>
  </symbol>
  <symbol id="time-z" viewBox="0 0 24 24" fill-rule="evenodd" clip-rule="evenodd">
    <title>time-z</title>
    <path d="M22.001 13c0-5.522-4.475-10.001-10.002-10.001-5.523 0-10.001 4.479-10.001 10.001 0 4.316 3.087 10 10.001 10 6.93 0 10.002-5.693 10.002-10zm-10.002 8c-4.411 0-8.001-3.59-8.001-8 0-4.413 3.59-8.001 8.001-8.001 4.412 0 8.002 3.588 8.002 8.001 0 4.41-3.59 8-8.002 8zm3-4h-6.005l.005-1.571 3.821-4.825h-3.821v-1.604h5.992v1.579l-3.779 4.84h3.787v1.581zm-14.197-8.285c-.535-.824-.802-1.772-.802-2.718 0-2.757 2.233-4.995 4.991-4.995.948 0 1.896.268 2.721.803-3.172 1.217-5.692 3.739-6.91 6.91zm18.201-7.715c-.947 0-1.895.268-2.719.803 3.17 1.218 5.694 3.739 6.914 6.909.534-.823.801-1.77.801-2.717 0-2.761-2.236-4.995-4.996-4.995z"/>
  </symbol>
  <symbol id="heart-beat" viewBox="0 0 24 24" fill-rule="evenodd" clip-rule="evenodd">
    <title>heart-beat</title>
    <path d="M3.732 13h1.504s2.32-8.403 2.799-10.263c.156-.605.646-.738.965-.737.319.001.826.224.947.74.581 2.466 3.11 13.908 3.11 13.908s1.597-6.441 1.943-7.891c.101-.425.536-.757 1-.757.464 0 .865.343 1 .707.312.841 1.675 4.287 1.677 4.293h1.591c.346-.598.992-1 1.732-1 1.104 0 2 .896 2 2s-.896 2-2 2c-.741 0-1.388-.404-1.734-1.003-.939-.001-1.856 0-2.266.003-.503.004-.774-.289-.928-.629l-.852-2.128s-1.828 7.367-2.25 8.999c-.153.595-.646.762-.97.758-.324-.004-.847-.198-.976-.783-.549-2.487-2.081-9.369-3.123-14.053 0 0-1.555 5.764-1.936 7.099-.13.454-.431.731-.965.737h-2.268c-.346.598-.992 1-1.732 1-1.104 0-2-.896-2-2s.896-2 2-2c.74 0 1.386.402 1.732 1z"/>
  </symbol>
  <symbol id="arrow-up" viewBox="0 0 24 24">
    <title>arrow-up</title>
    <path d="M12 3l12 18h-24z"/>
  </symbol>
  <symbol id="arrow-collapsible" fill-rule="evenodd" stroke-linejoin="round" stroke-miterlimit="1.41421" clip-rule="evenodd" viewBox="0 0 10 14">
    <title>arrow-collapsible</title>
    <path fill-rule="nonzero" d="M9.121 7l-6.06 6.061-2.122-2.122L4.879 7 .939 3.061 3.061.939C5.081 2.96 7.101 4.98 9.121 7z"/>
  </symbol>
  <symbol id="user-outlined" viewBox="0 0 24 24">
    <title>user-outlined</title>
    <path d="M12 2c3.032 0 5.5 2.467 5.5 5.5 0 1.458-.483 3.196-3.248 5.59 4.111 1.961 6.602 5.253 7.482 8.909h-19.486c.955-4.188 4.005-7.399 7.519-8.889-1.601-1.287-3.267-3.323-3.267-5.61 0-3.033 2.468-5.5 5.5-5.5zm0-2c-4.142 0-7.5 3.357-7.5 7.5 0 2.012.797 3.834 2.086 5.182-5.03 3.009-6.586 8.501-6.586 11.318h24c0-2.791-1.657-8.28-6.59-11.314 1.292-1.348 2.09-3.172 2.09-5.186 0-4.143-3.358-7.5-7.5-7.5z"/>
  </symbol>
  <symbol id="email-outlined" viewBox="0 0 24 24">
    <title>email-outlined</title>
    <path d="M12 2.02c5.514 0 10 4.486 10 10s-4.486 10-10 10-10-4.486-10-10 4.486-10 10-10zm0-2c-6.627 0-12 5.373-12 12s5.373 12 12 12 12-5.373 12-12-5.373-12-12-12zm0 12.55l-5.992-4.57h11.983l-5.991 4.57zm0 1.288l-6-4.629v6.771h12v-6.771l-6 4.629z"/>
  </symbol>
  <symbol id="close" viewBox="0 0 24 24">
    <title>close</title>
    <path d="M23.954 21.03l-9.184-9.095 9.092-9.174-2.832-2.807-9.09 9.179-9.176-9.088-2.81 2.81 9.186 9.105-9.095 9.184 2.81 2.81 9.112-9.192 9.18 9.1z"/>
  </symbol>
  <symbol id="facebook-color" viewBox="0 0 40 40" fill-rule="evenodd" clip-rule="evenodd">
    <title>facebook-color</title>
    <path fill="#295396" d="M40 20c0 11.0456-8.9546 20-20 20C8.95411 40 0 31.0456 0 20 0 8.95411 8.95411 0 20 0c11.0454 0 20 8.95411 20 20z"/>
    <path fill="#fff" d="M16.866 26.0359c0-1.8717-.0072-3.7435.0067-5.6149.0026-.3155-.0866-.4142-.4022-.4013-.5832.0236-1.168-.0025-1.752.011-.2365.006-.3236-.0595-.321-.31.0118-1.1677.0107-2.3362.0012-3.5042-.0021-.2247.0656-.2986.2927-.2935.5972.0137 1.1955-.0168 1.7915.0128.3454.0169.417-.1058.4098-.4264-.0209-.8888-.0209-1.7789-.0014-2.6677.0238-1.0856.3151-2.0992.9618-2.98187.8182-1.11785 1.9816-1.6289 3.3237-1.68877 1.3785-.06122 2.7604-.02724 4.1405-.0421.1924-.00219.2498.06659.249.25364-.0062 1.18113-.0075 2.3627.0008 3.5439.0019.2101-.0667.2744-.273.2711-.6638-.0103-1.3276-.0052-1.991-.0035-.8835.0028-1.4123.4573-1.4676 1.3318-.0444.7011-.012 1.4064-.0283 2.1096-.006.2504.1429.2333.3087.2331 1.0086-.0016 2.0176.01 3.0263-.0072.296-.0052.3937.0629.3598.3746-.1269 1.1736-.2359 2.3495-.3365 3.526-.0229.2655-.1441.3161-.3826.3121-.7957-.0122-1.5923-.0084-2.3887-.0034-.5719.0034-.5164-.0838-.5164.4996-.0027 3.6635-.0076 7.3271.0081 10.9906.0016.387-.0973.483-.4801.4762-1.3669-.0252-2.7345-.0264-4.1014.0006-.3852.0076-.4486-.1231-.4456-.4666.0147-1.8451.0072-3.69.0072-5.5352z" />
  </symbol>
  <symbol id="google-color" viewBox="0 0 40 40">
    <title>google-color</title>
    <path fill="#fff" d="M13.7422 1.09482C8.7721 2.76121 4.53713 6.40576 2.17828 11.0179 1.35542 12.609.762967 14.2969.400911 16.0493c-.899656 4.3434-.274286 8.977 1.766399 12.9334 1.32754 2.5802 3.23657 4.8809 5.54056 6.6763 2.18331 1.6986 4.71773 2.9672 7.41663 3.666 3.4012.8924 7.0218.8709 10.4448.1075 3.094-.6988 6.0233-2.1501 8.3603-4.2573 2.4685-2.2254 4.2349-5.1497 5.1675-8.2997 1.0203-3.4296 1.152-7.0956.5156-10.6219H20.4128v7.8052h11.125c-.4279 2.4942-1.942 4.7734-4.0814 6.1817-1.3495.8923-2.8964 1.4621-4.4983 1.7417-1.6018.2687-3.2694.301-4.8713-.0108-1.6347-.3225-3.1817-.9891-4.5421-1.9244-2.1724-1.4944-3.82906-3.6768-4.67386-6.1388-.86674-2.5049-.87771-5.2894 0-7.7836.6144-1.7632 1.62376-3.3866 2.96226-4.7197 1.6457-1.6556 3.7852-2.8382 6.1001-3.322 1.9749-.40853 4.0595-.33327 5.9904.23652 1.6457.4838 3.1598 1.37612 4.3996 2.53718 1.2507-1.22557 2.5014-2.45117 3.7522-3.67677.6583-.65581 1.3495-1.29011 1.9858-1.96742-1.898-1.72014-4.1362-3.10701-6.5719-3.98858-4.3885-1.591137-9.3257-1.62339-13.7471-.12901z"/>
    <path fill="#EA4335" d="M13.7421 1.0946c4.4105-1.49438 9.3586-1.462128 13.7472.11826 2.4356.88157 4.6628 2.25769 6.5719 3.98858-.6364.67731-1.3276 1.31161-1.9859 1.96742-1.2507 1.2256-2.5015 2.45121-3.7522 3.67684-1.2398-1.16113-2.7538-2.0427-4.3995-2.53724-1.931-.5698-4.0156-.65581-5.9904-.23652-2.304.48379-4.4434 1.66639-6.1001 3.32206-1.3385 1.3223-2.34792 2.9565-2.96231 4.7196-2.2272-1.6986-4.4544-3.3865-6.69257-5.0852C4.53708 6.40554 8.77204 2.76099 13.7421 1.0946z"/>
    <path fill="#FBBC05" d="M.412049 16.0385c.362057-1.7416.954511-3.4403 1.777371-5.0314 2.22719 1.6986 4.45439 3.3865 6.69256 5.0852-.87771 2.5049-.87771 5.2894 0 7.7836-2.2272 1.6987-4.45439 3.3973-6.68159 5.0852C.137764 25.0155-.487606 20.3819.412049 16.0385z"/>
    <path fill="#4285F4" d="M20.4123 16.2429h19.2c.6364 3.5156.4937 7.1816-.5156 10.6219-.9326 3.15-2.699 6.0743-5.1676 8.2997-2.1613-1.6449-4.3227-3.2898-6.4841-4.9347 2.1394-1.4083 3.6535-3.6875 4.0814-6.1817h-11.125c.0109-2.6017.0109-5.2035.0109-7.8052z"/>
    <path fill="#34A853" d="M2.17773 28.9717c2.2272-1.6879 4.4544-3.3866 6.6816-5.0852.85577 2.4619 2.50147 4.6444 4.67377 6.1387 1.3605.9354 2.9184 1.6019 4.5422 1.9245 1.6018.3225 3.2585.2795 4.8713.0107 1.6018-.2795 3.1488-.8493 4.4983-1.7416 2.1614 1.6449 4.3227 3.2897 6.4841 4.9346-2.3369 2.118-5.2663 3.5586-8.3602 4.2574-3.4231.7633-7.0437.7848-10.4448-.1075-2.699-.6988-5.23336-1.9567-7.41667-3.6661-2.29303-1.7846-4.20205-4.0853-5.5296-6.6655z"/>
  </symbol>
  <symbol id="image" viewBox="0 0 24 24">
    <title>image</title>
    <path d="M5 8.5c0-.828.672-1.5 1.5-1.5s1.5.672 1.5 1.5c0 .829-.672 1.5-1.5 1.5s-1.5-.671-1.5-1.5zm9 .5l-2.519 4-2.481-1.96-4 5.96h14l-5-8zm8-4v14h-20v-14h20zm2-2h-24v18h24v-18z"/>
  </symbol>
  <symbol id="plus" viewBox="0 0 24 24">
    <title>plus</title>
    <path d="M24 10h-10v-10h-4v10h-10v4h10v10h4v-10h10z"/>
  </symbol>
  <symbol id="search" viewBox="0 0 24 24">
    <title>search</title>
    <path d="M23.809 21.646l-6.205-6.205c1.167-1.605 1.857-3.579 1.857-5.711 0-5.365-4.365-9.73-9.731-9.73-5.365 0-9.73 4.365-9.73 9.73 0 5.366 4.365 9.73 9.73 9.73 2.034 0 3.923-.627 5.487-1.698l6.238 6.238 2.354-2.354zm-20.955-11.916c0-3.792 3.085-6.877 6.877-6.877s6.877 3.085 6.877 6.877-3.085 6.877-6.877 6.877c-3.793 0-6.877-3.085-6.877-6.877z"/>
  </symbol>
  <symbol id="alert-circle" viewBox="0 0 24 24">
    <title>alert-circle</title>
    <path d="M12 0c-6.627 0-12 5.373-12 12s5.373 12 12 12 12-5.373 12-12-5.373-12-12-12zm-1.351 6.493c-.08-.801.55-1.493 1.351-1.493s1.431.692 1.351 1.493l-.801 8.01c-.029.282-.266.497-.55.497s-.521-.215-.55-.498l-.801-8.009zm1.351 12.757c-.69 0-1.25-.56-1.25-1.25s.56-1.25 1.25-1.25 1.25.56 1.25 1.25-.56 1.25-1.25 1.25z"/>
  </symbol>
  <symbol id="close-circle" viewBox="0 0 24 24">
    <title>close-circle</title>
    <path d="M12 0c-6.627 0-12 5.373-12 12s5.373 12 12 12 12-5.373 12-12-5.373-12-12-12zm4.151 17.943l-4.143-4.102-4.117 4.159-1.833-1.833 4.104-4.157-4.162-4.119 1.833-1.833 4.155 4.102 4.106-4.16 1.849 1.849-4.1 4.141 4.157 4.104-1.849 1.849z"/>
  </symbol>
  <symbol id="calendar" viewBox="0 0 24 24">
    <title>calendar</title>
    <path d="M24 2v22h-24v-22h3v1c0 1.103.897 2 2 2s2-.897 2-2v-1h10v1c0 1.103.897 2 2 2s2-.897 2-2v-1h3zm-2 6h-20v14h20v-14zm-2-7c0-.552-.447-1-1-1s-1 .448-1 1v2c0 .552.447 1 1 1s1-.448 1-1v-2zm-14 2c0 .552-.447 1-1 1s-1-.448-1-1v-2c0-.552.447-1 1-1s1 .448 1 1v2zm6.687 13.482c0-.802-.418-1.429-1.109-1.695.528-.264.836-.807.836-1.503 0-1.346-1.312-2.149-2.581-2.149-1.477 0-2.591.925-2.659 2.763h1.645c-.014-.761.271-1.315 1.025-1.315.449 0 .933.272.933.869 0 .754-.816.862-1.567.797v1.28c1.067 0 1.704.067 1.704.985 0 .724-.548 1.048-1.091 1.048-.822 0-1.159-.614-1.188-1.452h-1.634c-.032 1.892 1.114 2.89 2.842 2.89 1.543 0 2.844-.943 2.844-2.518zm4.313 2.518v-7.718h-1.392c-.173 1.154-.995 1.491-2.171 1.459v1.346h1.852v4.913h1.711z"/>
  </symbol>
  <symbol id="iconid" viewBox="0 0 24 24">
    <title>iconid</title>
    <path/>
  </symbol>
</svg>