<svg xmlns="http://www.w3.org/2000/svg" style="display: none;">
  <symbol id="arrow" viewBox="0 0 24 24">
    <title>arrow</title>
    <path d="M24 12l-12-8v5h-12v6h12v5z"/>
  </symbol>
  <symbol id="arrow-collapse" fill-rule="evenodd" stroke-linejoin="round" stroke-miterlimit="1.41421" clip-rule="evenodd" viewBox="0 0 10 14">
    <title>arrow-collapse</title>
    <path fill-rule="nonzero" d="M9.121 7l-6.06 6.061-2.122-2.122L4.879 7 .939 3.061 3.061.939C5.081 2.96 7.101 4.98 9.121 7z"/>
  </symbol>
  <symbol id="arrow-y" viewBox="0 0 10 24">
    <title>arrow-y</title>
    <path d="M6 6h4L5 0 0 6h4v12H0l5 6 5-6H6V6z"/>
  </symbol>
  <symbol id="close" viewBox="0 0 24 24">
    <title>close</title>
    <path d="M23.954 21.03l-9.184-9.095 9.092-9.174-2.832-2.807-9.09 9.179-9.176-9.088-2.81 2.81 9.186 9.105-9.095 9.184 2.81 2.81 9.112-9.192 9.18 9.1z"/>
  </symbol>
  <symbol id="trash" viewBox="0 0 24 24">
    <title>trash</title>
    <path d="M3 6v18h18v-18h-18zm5 14c0 .552-.448 1-1 1s-1-.448-1-1v-10c0-.552.448-1 1-1s1 .448 1 1v10zm5 0c0 .552-.448 1-1 1s-1-.448-1-1v-10c0-.552.448-1 1-1s1 .448 1 1v10zm5 0c0 .552-.448 1-1 1s-1-.448-1-1v-10c0-.552.448-1 1-1s1 .448 1 1v10zm4-18v2h-20v-2h5.711c.9 0 1.631-1.099 1.631-2h5.315c0 .901.73 2 1.631 2h5.712z"/>
  </symbol>
  <symbol id="library" viewBox="0 0 24 24">
    <title>library</title>
    <path d="M1.8 9l-.8-4h22l-.8 4h-2.029l.39-2h-17.122l.414 2h-2.053zm18.575-6l.604-2h-17.979l.688 2h16.687zm3.625 8l-2 13h-20l-2-13h24zm-8 4c0-.552-.447-1-1-1h-6c-.553 0-1 .448-1 1s.447 1 1 1h6c.553 0 1-.448 1-1z"/>
  </symbol>
  <symbol id="mobile" viewBox="0 0 24 24">
    <title>mobile</title>
    <path d="M19 2c0-1.104-.896-2-2-2h-10c-1.104 0-2 .896-2 2v20c0 1.104.896 2 2 2h10c1.104 0 2-.896 2-2v-20zm-8.5 0h3c.276 0 .5.224.5.5s-.224.5-.5.5h-3c-.276 0-.5-.224-.5-.5s.224-.5.5-.5zm1.5 20c-.553 0-1-.448-1-1s.447-1 1-1c.552 0 .999.448.999 1s-.447 1-.999 1zm5-3h-10v-14.024h10v14.024z"/>
  </symbol>
  <symbol id="gear" viewBox="0 0 24 24">
    <title>gear</title>
    <path d="M24 13.616v-3.232c-1.651-.587-2.694-.752-3.219-2.019v-.001c-.527-1.271.1-2.134.847-3.707l-2.285-2.285c-1.561.742-2.433 1.375-3.707.847h-.001c-1.269-.526-1.435-1.576-2.019-3.219h-3.232c-.582 1.635-.749 2.692-2.019 3.219h-.001c-1.271.528-2.132-.098-3.707-.847l-2.285 2.285c.745 1.568 1.375 2.434.847 3.707-.527 1.271-1.584 1.438-3.219 2.02v3.232c1.632.58 2.692.749 3.219 2.019.53 1.282-.114 2.166-.847 3.707l2.285 2.286c1.562-.743 2.434-1.375 3.707-.847h.001c1.27.526 1.436 1.579 2.019 3.219h3.232c.582-1.636.75-2.69 2.027-3.222h.001c1.262-.524 2.12.101 3.698.851l2.285-2.286c-.744-1.563-1.375-2.433-.848-3.706.527-1.271 1.588-1.44 3.221-2.021zm-12 2.384c-2.209 0-4-1.791-4-4s1.791-4 4-4 4 1.791 4 4-1.791 4-4 4z"/>
  </symbol>
  <symbol id="desktop" viewBox="0 0 24 24" fill-rule="evenodd" clip-rule="evenodd">
    <title>desktop</title>
    <path d="M17 24h-10v-1c1.533-.366 2.386-1.572 2.497-3h5.006c.111 1.427.964 2.634 2.497 3v1zm6-5c.265 0 .52-.105.707-.293.188-.187.293-.442.293-.707v-17c0-.265-.105-.52-.293-.707-.187-.188-.442-.293-.707-.293h-22c-.265 0-.52.105-.707.293-.188.187-.293.442-.293.707v17c0 .265.105.52.293.707.187.188.442.293.707.293h22zm-11-3.419c.552 0 1 .448 1 1s-.448 1-1 1-1-.448-1-1 .448-1 1-1zm10-13.581h-20v12h20v-12z"/>
  </symbol>
  <symbol id="cursor-drag" viewBox="0 0 24 24">
    <title>cursor-drag</title>
    <path d="M12 10c1.104 0 2 .896 2 2s-.896 2-2 2-2-.896-2-2 .896-2 2-2zm-3.857 3c-.084-.321-.143-.652-.143-1s.059-.679.143-1h-2.143v-4l-6 5 6 5v-4h2.143zm7.714-2c.084.321.143.652.143 1s-.059.679-.143 1h2.143v4l6-5-6-5v4h-2.143zm-2.857 4.857c-.321.084-.652.143-1 .143s-.679-.059-1-.143v2.143h-4l5 6 5-6h-4v-2.143zm-2-7.714c.321-.084.652-.143 1-.143s.679.059 1 .143v-2.143h4l-5-6-5 6h4v2.143z"/>
  </symbol>
  <symbol id="image" viewBox="0 0 24 24">
    <title>image</title>
    <path d="M5 8.5c0-.828.672-1.5 1.5-1.5s1.5.672 1.5 1.5c0 .829-.672 1.5-1.5 1.5s-1.5-.671-1.5-1.5zm9 .5l-2.519 4-2.481-1.96-4 5.96h14l-5-8zm8-4v14h-20v-14h20zm2-2h-24v18h24v-18z"/>
  </symbol>
  <symbol id="h1" viewBox="0 0 24 24">
    <title>h1</title>
    <path d="M22.432,19.175l-3.257,0l0,-10.605l-3.2,0.956l0,-2.523l6.158,-2.178l0.299,0l0,14.35Zm-17.414,0l-3.46,0l0,-14.35l3.46,0l0,5.697l5.095,0l0,-5.697l3.44,0l0,14.35l-3.44,0l0,-5.992l-5.095,0l0,5.992Z"/>
  </symbol>
  <symbol id="h2" viewBox="0 0 24 24">
    <title>h2</title>
    <path d="M11.995,19.175l-3.44,0l0,-5.992l-5.095,0l0,5.992l-3.46,0l0,-14.35l3.46,0l0,5.697l5.095,0l0,-5.697l3.44,0l0,14.35Zm12.005,0l-10.014,0l0,-2.168l4.613,-4.849c1.137,-1.295 1.705,-2.323 1.705,-3.085c0,-0.618 -0.135,-1.088 -0.404,-1.41c-0.27,-0.322 -0.661,-0.483 -1.173,-0.483c-0.506,0 -0.917,0.217 -1.232,0.651c-0.316,0.427 -0.473,0.962 -0.473,1.606l-3.332,0c0,-0.88 0.22,-1.692 0.661,-2.434c0.44,-0.749 1.051,-1.334 1.833,-1.755c0.782,-0.42 1.656,-0.63 2.622,-0.63c1.55,0 2.743,0.358 3.578,1.074c0.841,0.716 1.261,1.745 1.261,3.085c0,0.565 -0.105,1.117 -0.315,1.656c-0.21,0.532 -0.539,1.094 -0.986,1.685c-0.44,0.585 -1.153,1.37 -2.139,2.356l-1.853,2.139l5.648,0l0,2.562Z"/>
  </symbol>
  <symbol id="italics" viewBox="0 0 24 24">
    <title>italics</title>
    <path d="M15.543,4.825l-0.101,1.184l-1.525,0.14c-0.188,0.643 -0.335,1.352 -0.442,2.128l-1.084,7.446c-0.12,0.843 -0.18,1.552 -0.18,2.128l1.706,0.14l-0.301,1.184c-0.857,-0.067 -1.813,-0.1 -2.87,-0.1l-2.289,0.1l0.041,-1.003l1.585,-0.321c0.014,-0.054 0.054,-0.194 0.121,-0.422c0.147,-0.562 0.234,-0.93 0.261,-1.104l1.264,-8.65c0.04,-0.228 0.06,-0.736 0.06,-1.526l-1.465,-0.241l0.261,-1.083c1.218,0.067 1.96,0.1 2.228,0.1l2.73,-0.1Z" />
  </symbol>
  <symbol id="bold" viewBox="0 0 24 24">
    <title>bold</title>
    <path d="M16.621,14.084c0,1.636 -0.339,2.893 -1.015,3.773c-0.676,0.879 -1.629,1.318 -2.859,1.318c-1.014,0 -1.832,-0.402 -2.453,-1.208l-0.129,1.024l-2.786,0l0,-14.166l3.108,0l0,4.989c0.578,-0.658 1.325,-0.987 2.242,-0.987c1.242,0 2.201,0.446 2.877,1.338c0.676,0.891 1.015,2.146 1.015,3.763l0,0.156Zm-3.118,-0.193c0,-0.959 -0.129,-1.642 -0.387,-2.048c-0.252,-0.412 -0.643,-0.618 -1.171,-0.618c-0.701,0 -1.187,0.268 -1.458,0.803l0,3.965c0.265,0.529 0.757,0.794 1.476,0.794c0.732,0 1.196,-0.357 1.393,-1.07c0.098,-0.351 0.147,-0.959 0.147,-1.826Z" />
  </symbol>
  <symbol id="paragraph" viewBox="0 0 24 24">
    <title>paragraph</title>
    <path d="M9.812,14.306l0,4.869l-3.46,0l0,-14.35l5.727,0c1.097,0 2.066,0.203 2.907,0.611c0.848,0.401 1.502,0.975 1.962,1.725c0.466,0.742 0.7,1.586 0.7,2.533c0,1.399 -0.503,2.52 -1.508,3.361c-0.999,0.834 -2.372,1.251 -4.12,1.251l-2.208,0Zm0,-2.671l2.267,0c0.67,0 1.179,-0.167 1.528,-0.502c0.354,-0.335 0.532,-0.809 0.532,-1.42c0,-0.67 -0.181,-1.205 -0.542,-1.606c-0.362,-0.401 -0.854,-0.605 -1.479,-0.611l-2.306,0l0,4.139Z" />
  </symbol>
  <symbol id="list" viewBox="0 0 24 24">
    <title>list</title>
    <path d="M6.26,19.175l-2.87,0l0,-2.87l2.87,0l0,2.87Zm0,-8.61l-2.87,0l0,2.87l2.87,0l0,-2.87Zm0,-5.74l-2.87,0l0,2.87l2.87,0l0,-2.87Zm2.152,0l0,2.87l12.198,0l0,-2.87l-12.198,0Zm0,8.61l12.198,0l0,-2.87l-12.198,0l0,2.87Zm0,5.74l12.198,0l0,-2.87l-12.198,0l0,2.87Z" />
  </symbol>
  <symbol id="link" viewBox="0 0 24 24">
    <title>link</title>
    <path d="M8.524,10.038c0.263,-0.263 0.554,-0.479 0.864,-0.65c1.726,-0.952 3.939,-0.446 5.049,1.237l-1.343,1.342c-0.385,-0.878 -1.341,-1.378 -2.292,-1.165c-0.358,0.08 -0.699,0.259 -0.977,0.537l-2.573,2.574c-0.782,0.782 -0.782,2.053 0,2.835c0.781,0.781 2.052,0.781 2.834,0l0.793,-0.794c0.722,0.287 1.496,0.401 2.26,0.344l-1.751,1.751c-1.502,1.502 -3.936,1.502 -5.437,0c-1.502,-1.501 -1.502,-3.935 0,-5.437l2.573,-2.574Zm4.088,-4.088l-1.752,1.752c0.764,-0.058 1.538,0.057 2.26,0.343l0.793,-0.793c0.781,-0.782 2.052,-0.782 2.834,0c0.781,0.781 0.781,2.053 0,2.834l-2.574,2.574c-0.784,0.784 -2.057,0.777 -2.834,0c-0.182,-0.181 -0.338,-0.406 -0.435,-0.628l-1.343,1.342c0.141,0.214 0.288,0.399 0.476,0.587c0.485,0.486 1.104,0.848 1.815,1.019c0.922,0.222 1.91,0.099 2.758,-0.369c0.31,-0.171 0.601,-0.387 0.864,-0.65l2.573,-2.574c1.502,-1.501 1.502,-3.935 0.001,-5.437c-1.501,-1.501 -3.935,-1.501 -5.436,0Z" />
  </symbol>
  <symbol id="iconid" viewBox="0 0 24 24">
    <title>iconid</title>
    <path/>
  </symbol>
</svg>