<svg xmlns="http://www.w3.org/2000/svg" style="display: none;">
  <symbol id="octafest" fill-rule="evenodd" stroke-linejoin="round" stroke-miterlimit="2" clip-rule="evenodd" viewBox="0 0 512 512">
    <path fill="#fe4587" d="M512 91.352C512 40.933 471.067 0 420.648 0H91.352C40.933 0 0 40.933 0 91.352v329.296C0 471.067 40.933 512 91.352 512h329.296C471.067 512 512 471.067 512 420.648V91.352z"/>
    <path fill="#fff" d="M77.155 188.933c0-74.02 80.145-134.134 178.845-134.134s178.844 60.114 178.844 134.134v234.734c0 18.51-20.03 33.533-44.71 33.533-24.681 0-44.712-15.023-44.712-33.533v-27.945c0-9.255-10.015-16.767-22.356-16.767-12.34 0-22.355 7.512-22.355 16.767v27.945c0 18.51-20.03 33.533-44.711 33.533-24.681 0-44.712-15.023-44.712-33.533v-27.945c0-9.255-10.015-16.767-22.355-16.767s-22.356 7.512-22.356 16.767v27.945c0 18.51-20.03 33.533-44.711 33.533-24.68 0-44.711-15.023-44.711-33.533V188.933zm122.956-44.711c30.85 0 55.889 25.038 55.889 55.889C256 230.96 230.96 256 200.11 256c-30.85 0-55.888-25.039-55.888-55.89 0-30.85 25.038-55.888 55.889-55.888z"/>
  </symbol>
  <symbol id="home" viewBox="0 0 24 24">
    <path d="M20 7.093v-5.093h-3v2.093l3 3zm4 5.907l-12-12-12 12h3v10h18v-10h3zm-5 8h-14v-10.26l7-6.912 7 6.99v10.182zm-5-1h-4v-6h4v6z"/>
  </symbol>
  <symbol id="components" viewBox="0 0 24 24">
    <path d="M18.417 6.75v-.947c-.124-1.511-4.042-1.52-4.148-.001h-.013v.948c-.034 1.598 4.214 1.601 4.161 0zm-2.067-1.366c.723 0 1.311.253 1.311.564s-.588.564-1.311.564c-.724 0-1.311-.253-1.311-.564s.587-.564 1.311-.564zm-2.286 3.771v-.947c-.123-1.511-4.042-1.52-4.148-.001h-.013v.948c-.034 1.598 4.213 1.601 4.161 0zm-2.068-.238c-.723 0-1.311-.253-1.311-.564 0-.312.588-.564 1.311-.564.724 0 1.311.253 1.311.564 0 .312-.587.564-1.311.564zm2.068-4.446v-.946c-.124-1.512-4.042-1.52-4.148-.001h-.013v.947c-.034 1.598 4.214 1.602 4.161 0zm-2.067-1.366c.723 0 1.311.253 1.311.564s-.588.564-1.311.564c-.724 0-1.311-.253-1.311-.564s.587-.564 1.311-.564zm.003-3.105l-11 6 .009.019-.009-.005v12.118l11 5.868 11-5.869v-12.055l-11-6.076zm-.003 1.141l9.917 5.458-9.896 5.385-9.903-5.448 9.882-5.395zm9.003 11.63l-8 4.268v-3.039l8-4.353v3.124zm-10 4.268l-8-4.268v-3.172l8 4.401v3.039zm-8-3.228l8 4.268v2.921l-8-4.268v-2.921zm10 4.268l8-4.268v2.921l-8 4.268v-2.921zm-7.447-12.277h-.013v.948c-.034 1.598 4.213 1.601 4.161 0v-.947c-.123-1.511-4.042-1.519-4.148-.001zm2.08.71c-.723 0-1.311-.253-1.311-.564s.588-.565 1.311-.565c.724 0 1.311.253 1.311.564s-.588.565-1.311.565z"/>
  </symbol>
  <symbol id="autocomplete" viewBox="0 0 24 24">
    <path d="M9.145 18.29c-5.042 0-9.145-4.102-9.145-9.145s4.103-9.145 9.145-9.145 9.145 4.103 9.145 9.145-4.102 9.145-9.145 9.145zm0-15.167c-3.321 0-6.022 2.702-6.022 6.022s2.702 6.022 6.022 6.022 6.023-2.702 6.023-6.022-2.702-6.022-6.023-6.022zm9.263 12.443c-.817 1.176-1.852 2.188-3.046 2.981l5.452 5.453 3.014-3.013-5.42-5.421z"/>
  </symbol>
  <symbol id="button" viewBox="0 0 24 24" fill-rule="evenodd" clip-rule="evenodd">
    <path d="M22 0c1.104 0 2 .896 2 2v20c0 1.104-.896 2-2 2h-20c-1.104 0-2-.896-2-2v-20c0-1.104.896-2 2-2h20zm0 2.75c0-.413-.335-.75-.75-.75h-18.5c-.414 0-.75.336-.75.75v18.5c0 .415.337.75.75.75h18.5c.414 0 .75-.336.75-.75v-18.5z"/>
  </symbol>
  <symbol id="calendar" viewBox="0 0 24 24">
    <path d="M24 2v22h-24v-22h3v1c0 1.103.897 2 2 2s2-.897 2-2v-1h10v1c0 1.103.897 2 2 2s2-.897 2-2v-1h3zm-2 6h-20v14h20v-14zm-2-7c0-.552-.447-1-1-1s-1 .448-1 1v2c0 .552.447 1 1 1s1-.448 1-1v-2zm-14 2c0 .552-.447 1-1 1s-1-.448-1-1v-2c0-.552.447-1 1-1s1 .448 1 1v2zm6.687 13.482c0-.802-.418-1.429-1.109-1.695.528-.264.836-.807.836-1.503 0-1.346-1.312-2.149-2.581-2.149-1.477 0-2.591.925-2.659 2.763h1.645c-.014-.761.271-1.315 1.025-1.315.449 0 .933.272.933.869 0 .754-.816.862-1.567.797v1.28c1.067 0 1.704.067 1.704.985 0 .724-.548 1.048-1.091 1.048-.822 0-1.159-.614-1.188-1.452h-1.634c-.032 1.892 1.114 2.89 2.842 2.89 1.543 0 2.844-.943 2.844-2.518zm4.313 2.518v-7.718h-1.392c-.173 1.154-.995 1.491-2.171 1.459v1.346h1.852v4.913h1.711z"/>
  </symbol>
  <symbol id="card" viewBox="0 0 24 24">
    <path d="M22 5v14h-20v-14h20zm2-2h-24v18h24v-18zm-10 13.597v.403h-10v-.417c-.004-1.112.044-1.747 1.324-2.043 1.403-.324 2.787-.613 2.122-1.841-1.973-3.637-.563-5.699 1.554-5.699 2.077 0 3.521 1.985 1.556 5.699-.647 1.22.688 1.51 2.121 1.841 1.284.297 1.328.936 1.323 2.057zm6-9.597h-4v2h4v-2zm0 4h-4v2h4v-2zm0 4h-4v2h4v-2z"/>
  </symbol>
  <symbol id="collapse" viewBox="0 0 24 24">
    <path d="M8.122 24l-4.122-4 8-8-8-8 4.122-4 11.878 12z"/>
  </symbol>
  <symbol id="checkbox" viewBox="0 0 24 24">
    <path d="M20 12.194v9.806h-20v-20h18.272l-1.951 2h-14.321v16h16v-5.768l2-2.038zm.904-10.027l-9.404 9.639-4.405-4.176-3.095 3.097 7.5 7.273 12.5-12.737-3.096-3.096z"/>
  </symbol>
  <symbol id="datepicker" viewBox="0 0 24 24">
    <path d="M17 3v-2c0-.552.447-1 1-1s1 .448 1 1v2c0 .552-.447 1-1 1s-1-.448-1-1zm-12 1c.553 0 1-.448 1-1v-2c0-.552-.447-1-1-1-.553 0-1 .448-1 1v2c0 .552.447 1 1 1zm13 13v-3h-1v4h3v-1h-2zm-5 .5c0 2.481 2.019 4.5 4.5 4.5s4.5-2.019 4.5-4.5-2.019-4.5-4.5-4.5-4.5 2.019-4.5 4.5zm11 0c0 3.59-2.91 6.5-6.5 6.5s-6.5-2.91-6.5-6.5 2.91-6.5 6.5-6.5 6.5 2.91 6.5 6.5zm-14.237 3.5h-7.763v-13h19v1.763c.727.33 1.399.757 2 1.268v-9.031h-3v1c0 1.316-1.278 2.339-2.658 1.894-.831-.268-1.342-1.111-1.342-1.984v-.91h-9v1c0 1.316-1.278 2.339-2.658 1.894-.831-.268-1.342-1.111-1.342-1.984v-.91h-3v21h11.031c-.511-.601-.938-1.273-1.268-2z"/>
  </symbol>
  <symbol id="dialog" viewBox="0 0 24 24" fill-rule="evenodd" clip-rule="evenodd">
    <path d="M24 1v16.981h-13l-7 5.02v-5.02h-4v-16.981h24zm-2 15v-12.999h-20v12.999h4v3.105l4.357-3.105h11.643zm-4-9.715l-6.622 7.715-4.378-3.852 1.319-1.489 2.879 2.519 5.327-6.178 1.475 1.285z"/>
  </symbol>
  <symbol id="dropdown-menu" viewBox="0 0 24 24">
    <path d="M13 6h-13v-4h13v4zm0 4h-13v4h13v-4zm0 8h-13v4h13v-4zm3-8l4 5.075 4-5.075h-8z"/>
  </symbol>
  <symbol id="icon" viewBox="0 0 24 24">
    <path d="M13.931 10.245l2.021-2.042-2.778-.403-1.223-2.653-1.222 2.653-2.778.402 2.021 2.042-.492 2.903 2.471-1.391 2.472 1.391-.492-2.902zm-9.481 4.518c-.866-1.382-1.374-3.012-1.374-4.763 0-4.971 4.029-9 9-9s9 4.029 9 9c0 1.792-.53 3.458-1.433 4.861-.607-.31-1.228-.585-1.862-.819.812-1.143 1.295-2.536 1.295-4.042 0-3.86-3.141-7-7-7s-7 3.14-7 7c0 1.476.462 2.844 1.244 3.974-.636.225-1.26.488-1.87.789zm15.307 2.45l-2.334 3.322c-1.603-.924-3.448-1.464-5.423-1.473-1.975.009-3.82.549-5.423 1.473l-2.334-3.322c2.266-1.386 4.912-2.202 7.757-2.211 2.845.009 5.491.825 7.757 2.211zm4.243 2.787h-2.359l-.566 3c-.613-1.012-1.388-1.912-2.277-2.68l2.343-3.335c1.088.879 2.052 1.848 2.859 3.015zm-21.14-3.015l2.343 3.335c-.89.769-1.664 1.668-2.277 2.68l-.566-3h-2.36c.807-1.167 1.771-2.136 2.86-3.015z"/>
  </symbol>
  <symbol id="info" viewBox="0 0 24 24">
    <path d="M12 0c-6.627 0-12 5.373-12 12s5.373 12 12 12 12-5.373 12-12-5.373-12-12-12zm-.001 5.75c.69 0 1.251.56 1.251 1.25s-.561 1.25-1.251 1.25-1.249-.56-1.249-1.25.559-1.25 1.249-1.25zm2.001 12.25h-4v-1c.484-.179 1-.201 1-.735v-4.467c0-.534-.516-.618-1-.797v-1h3v6.265c0 .535.517.558 1 .735v.999z"/>
  </symbol>
  <symbol id="input" viewBox="0 0 24 24">
    <path d="M22 2v20h-20v-20h20zm2-2h-24v24h24v-24z"/>
  </symbol>
  <symbol id="item-grid" viewBox="0 0 24 24">
    <path d="M6 6h-6v-6h6v6zm9-6h-6v6h6v-6zm9 0h-6v6h6v-6zm-18 9h-6v6h6v-6zm9 0h-6v6h6v-6zm9 0h-6v6h6v-6zm-18 9h-6v6h6v-6zm9 0h-6v6h6v-6zm9 0h-6v6h6v-6z"/>
  </symbol>
  <symbol id="label-select" viewBox="0 0 24 24">
    <path d="M9.145 18.29c-5.042 0-9.145-4.102-9.145-9.145s4.103-9.145 9.145-9.145 9.145 4.103 9.145 9.145-4.102 9.145-9.145 9.145zm0-15.167c-3.321 0-6.022 2.702-6.022 6.022s2.702 6.022 6.022 6.022 6.023-2.702 6.023-6.022-2.702-6.022-6.023-6.022zm9.263 12.443c-.817 1.176-1.852 2.188-3.046 2.981l5.452 5.453 3.014-3.013-5.42-5.421z"/>
  </symbol>
  <symbol id="field" viewBox="0 0 24 24">
    <path />
  </symbol>
  <symbol id="menu-user" viewBox="0 0 24 24">
    <path />
  </symbol>
  <symbol id="menu-header" viewBox="0 0 24 24">
    <path />
  </symbol>
  <symbol id="menu" viewBox="0 0 24 24">
    <path />
  </symbol>
  <symbol id="modal" viewBox="0 0 24 24">
    <path />
  </symbol>
  <symbol id="modal-content" viewBox="0 0 24 24">
    <path />
  </symbol>
  <symbol id="radio" viewBox="0 0 24 24">
    <path />
  </symbol>
  <symbol id="loading" viewBox="0 0 24 24">
    <path />
  </symbol>
  <symbol id="search-input" viewBox="0 0 24 24">
    <path />
  </symbol>
  <symbol id="select" viewBox="0 0 24 24">
    <path />
  </symbol>
  <symbol id="search-select" viewBox="0 0 24 24">
    <path />
  </symbol>
  <symbol id="switch" viewBox="0 0 24 24" fill-rule="evenodd" clip-rule="evenodd">
    <path d="M18 18h-12c-3.311 0-6-2.689-6-6s2.689-6 6-6h12.039c3.293.021 5.961 2.701 5.961 6 0 3.311-2.688 6-6 6zm-12-10c2.208 0 4 1.792 4 4s-1.792 4-4 4-4-1.792-4-4 1.792-4 4-4z"/>
  </symbol>
  <symbol id="tabs" viewBox="0 0 24 24">
    <path />
  </symbol>
  <symbol id="typography" viewBox="0 0 24 24">
    <path d="M24 20v1h-4v-1h.835c.258 0 .405-.178.321-.422l-.473-1.371h-2.231l-.575-1.59h2.295l-1.362-4.077-1.154 3.451-.879-2.498.921-2.493h2.222l3.033 8.516c.111.315.244.484.578.484h.469zm-6-1h1v2h-7v-2h.532c.459 0 .782-.453.633-.887l-.816-2.113h-6.232l-.815 2.113c-.149.434.174.887.633.887h1.065v2h-7v-2h.43c.593 0 1.123-.375 1.32-.935l5.507-15.065h3.952l5.507 15.065c.197.56.69.935 1.284.935zm-10.886-6h4.238l-2.259-6.199-1.979 6.199z"/>
  </symbol>
  <symbol id="tags" viewBox="0 0 24 24">
    <path d="M10.452 2l8.271 8.265-5.431 5.279-8.292-8.314v-5.23h5.452zm.828-2h-8.28v8.058l10.271 10.296 8.302-8.07-10.293-10.284zm-1.72 6.559c-.585.585-1.535.585-2.12 0-.586-.584-.586-1.533 0-2.118.585-.585 1.535-.585 2.12 0 .586.584.586 1.533 0 2.118zm11.01 7.407l1.43 1.409-8.688 8.625-10.312-10.317v-2.833l10.349 10.291 7.221-7.175z"/>
  </symbol>
  <symbol id="user-avatar" viewBox="0 0 24 24">
    <path d="M12 0c-6.627 0-12 5.373-12 12s5.373 12 12 12 12-5.373 12-12-5.373-12-12-12zm7.753 18.305c-.261-.586-.789-.991-1.871-1.241-2.293-.529-4.428-.993-3.393-2.945 3.145-5.942.833-9.119-2.489-9.119-3.388 0-5.644 3.299-2.489 9.119 1.066 1.964-1.148 2.427-3.393 2.945-1.084.25-1.608.658-1.867 1.246-1.405-1.723-2.251-3.919-2.251-6.31 0-5.514 4.486-10 10-10s10 4.486 10 10c0 2.389-.845 4.583-2.247 6.305z"/>
  </symbol>
  <symbol id="user-login-type" viewBox="0 0 24 24">
    <path />
  </symbol>
  <symbol id="install" viewBox="0 0 24 24">
    <path />
  </symbol>
  <symbol id="git" viewBox="0 0 24 24">
    <path d="M12 0c-6.626 0-12 5.373-12 12 0 5.302 3.438 9.8 8.207 11.387.599.111.793-.261.793-.577v-2.234c-3.338.726-4.033-1.416-4.033-1.416-.546-1.387-1.333-1.756-1.333-1.756-1.089-.745.083-.729.083-.729 1.205.084 1.839 1.237 1.839 1.237 1.07 1.834 2.807 1.304 3.492.997.107-.775.418-1.305.762-1.604-2.665-.305-5.467-1.334-5.467-5.931 0-1.311.469-2.381 1.236-3.221-.124-.303-.535-1.524.117-3.176 0 0 1.008-.322 3.301 1.23.957-.266 1.983-.399 3.003-.404 1.02.005 2.047.138 3.006.404 2.291-1.552 3.297-1.23 3.297-1.23.653 1.653.242 2.874.118 3.176.77.84 1.235 1.911 1.235 3.221 0 4.609-2.807 5.624-5.479 5.921.43.372.823 1.102.823 2.222v3.293c0 .319.192.694.801.576 4.765-1.589 8.199-6.086 8.199-11.386 0-6.627-5.373-12-12-12z"/>
  </symbol>
  <symbol id="setup" viewBox="0 0 24 24">
    <path d="M24 13.616v-3.232c-1.651-.587-2.694-.752-3.219-2.019v-.001c-.527-1.271.1-2.134.847-3.707l-2.285-2.285c-1.561.742-2.433 1.375-3.707.847h-.001c-1.269-.526-1.435-1.576-2.019-3.219h-3.232c-.582 1.635-.749 2.692-2.019 3.219h-.001c-1.271.528-2.132-.098-3.707-.847l-2.285 2.285c.745 1.568 1.375 2.434.847 3.707-.527 1.271-1.584 1.438-3.219 2.02v3.232c1.632.58 2.692.749 3.219 2.019.53 1.282-.114 2.166-.847 3.707l2.285 2.286c1.562-.743 2.434-1.375 3.707-.847h.001c1.27.526 1.436 1.579 2.019 3.219h3.232c.582-1.636.75-2.69 2.027-3.222h.001c1.262-.524 2.12.101 3.698.851l2.285-2.286c-.744-1.563-1.375-2.433-.848-3.706.527-1.271 1.588-1.44 3.221-2.021zm-12 2.384c-2.209 0-4-1.791-4-4s1.791-4 4-4 4 1.791 4 4-1.791 4-4 4z"/>
  </symbol>
</svg>