<svg xmlns="http://www.w3.org/2000/svg" style="display: none;">
  <symbol id="scanorama" viewBox="17 30.7 150.2 54.3">
    <path d="M47.3 49.6v-8.4c0-6.6-1.9-10.4-6.7-10.4-4.6 0-6.7 3.8-6.7 10.4v33.4c0 6.8 1.9 10.4 6.7 10.4 4.6 0 6.7-4 6.7-10.4v-11h-4.4v11.1c0 3.9.6 8.5-2.2 8.5-2.6 0-2.2-4.4-2.2-8.5V40.4c0-5.1.1-7.8 2.2-7.8s2.2 2.9 2.2 7.8v9.2h4.4zM32.1 73.8c0 6.8-2.7 11.1-7.5 11.1-4.6 0-7.5-3.5-7.5-11.1V63.7h4.4v12.7c0 3.9.3 6.8 3.1 6.8 2.6 0 3.1-2.6 3.1-6.8 0-5.7-1.1-9.1-5.6-18.3-3.8-7.9-5-11.7-5-16.6 0-6.8 2.7-10.8 7.5-10.8 4.6 0 7.5 3.6 7.5 10v8.9h-4.4v-9.7c0-3.9-.3-7.5-3.1-7.5-2.4 0-3.1 2.9-3.1 7.5 0 7.5 3.3 13 5.1 16.5 2.3 4.8 5.5 12 5.5 17.4zM103.9 33.4V63h.3c2.6 0 4.6-2.7 4.6-7.4V40.8c0-5.3-1.3-7.5-4.7-7.5 0 .1-.2.1-.2.1zm6.7 50.9c-1.8-9.3-2.3-11.3-4-19.6-.9.2-1.8.2-2.7.2v19.3h-4.7V31.6h4.7c6.1 0 9.4 3.6 9.4 11v12.1c0 4.8-2.4 8.4-5 9.5 3.1 14.6 4.3 20.2 4.3 20.2l-2-.1zM123.3 84.3h4.4l-5-52.7h-3.8l-4.7 52.7 2 .1 1.1-11.7h5l1 11.6zm-5.9-14l2.3-25.1 2.3 25.1h-4.6zM162.8 84.3h4.4l-5-52.7h-3.8l-4.7 52.7 2 .1 1.1-11.7h5l1 11.6zm-5.8-14l2.3-25.1 2.3 25.1H157zM58 84.3h4.4l-5-52.7h-3.8l-4.7 52.7 2 .1L52 72.7h5l1 11.6zm-5.9-14l2.3-25.1 2.3 25.1h-4.6zM77.4 31.7v39.9l-9.5-39.9h-3.8v52.6h2.1V45.4l9.5 38.9h3.7V31.7h-2zM149.2 31.7h-1.8l-6.4 39-7-39h-4.4v52.6h1.9v-39l7.2 39h2.6l6.2-38.5v38.5h4.3V31.7h-2.6zM96.8 40.9c0-6.7-2.6-10-7.4-10-4.6 0-7.4 3.6-7.4 10v33c0 6.7 2.6 11.1 7.4 11.1 4.6 0 7.4-4.7 7.4-11.1v-33zm-4.7 34.2c0 3.9 0 7.9-2.8 7.9-2.6 0-2.7-3.8-2.7-7.9V40.6c0-3.9 0-7.9 2.8-7.9 2.6 0 2.7 3.8 2.7 7.9v34.5z"/>
  </symbol>
  <symbol id="octafest" fill-rule="evenodd" stroke-linejoin="round" stroke-miterlimit="2" clip-rule="evenodd" viewBox="0 0 512 512">
    <path fill="#fe4587" d="M512 91.352C512 40.933 471.067 0 420.648 0H91.352C40.933 0 0 40.933 0 91.352v329.296C0 471.067 40.933 512 91.352 512h329.296C471.067 512 512 471.067 512 420.648V91.352z"/>
    <path fill="#fff" d="M77.155 188.933c0-74.02 80.145-134.134 178.845-134.134s178.844 60.114 178.844 134.134v234.734c0 18.51-20.03 33.533-44.71 33.533-24.681 0-44.712-15.023-44.712-33.533v-27.945c0-9.255-10.015-16.767-22.356-16.767-12.34 0-22.355 7.512-22.355 16.767v27.945c0 18.51-20.03 33.533-44.711 33.533-24.681 0-44.712-15.023-44.712-33.533v-27.945c0-9.255-10.015-16.767-22.355-16.767s-22.356 7.512-22.356 16.767v27.945c0 18.51-20.03 33.533-44.711 33.533-24.68 0-44.711-15.023-44.711-33.533V188.933zm122.956-44.711c30.85 0 55.889 25.038 55.889 55.889C256 230.96 230.96 256 200.11 256c-30.85 0-55.888-25.039-55.888-55.89 0-30.85 25.038-55.888 55.889-55.888z"/>
  </symbol>
</svg>